<mxfile host="Electron" modified="2024-01-24T09:21:26.428Z" agent="Mozilla/5.0 (Windows NT 10.0; Win64; x64) AppleWebKit/537.36 (KHTML, like Gecko) draw.io/22.1.16 Chrome/120.0.6099.109 Electron/28.1.0 Safari/537.36" etag="SY-6R7BBurc38jk2Yj43" version="22.1.16" type="device">
  <diagram name="Page-1" id="c4acf3e9-155e-7222-9cf6-157b1a14988f">
    <mxGraphModel dx="3061" dy="1289" grid="1" gridSize="10" guides="1" tooltips="1" connect="1" arrows="1" fold="1" page="1" pageScale="1" pageWidth="850" pageHeight="1100" background="none" math="0" shadow="1">
      <root>
        <mxCell id="0" />
        <mxCell id="1" parent="0" />
        <mxCell id="4xx8AByjb6Wwkfl3zzVE-29" style="edgeStyle=orthogonalEdgeStyle;rounded=0;orthogonalLoop=1;jettySize=auto;html=1;exitX=1.002;exitY=0.437;exitDx=0;exitDy=0;exitPerimeter=0;entryX=0;entryY=0.5;entryDx=0;entryDy=0;endArrow=none;endFill=0;startArrow=diamond;startFill=0;" parent="1" source="5d2195bd80daf111-18" target="4xx8AByjb6Wwkfl3zzVE-30" edge="1">
          <mxGeometry relative="1" as="geometry">
            <mxPoint x="-60" y="1670" as="targetPoint" />
          </mxGeometry>
        </mxCell>
        <mxCell id="5d2195bd80daf111-18" value="&lt;p style=&quot;margin:0px;margin-top:4px;text-align:center;&quot;&gt;&lt;i&gt;&lt;b&gt;UWorld&lt;/b&gt;&lt;/i&gt;&lt;/p&gt;&lt;hr size=&quot;1&quot;&gt;&lt;p style=&quot;margin:0px;margin-left:4px;&quot;&gt;- NavigationSystem:&amp;nbsp;UNavigationSystemBase*&lt;/p&gt;&lt;p style=&quot;margin:0px;margin-left:4px;&quot;&gt;&lt;br&gt;&lt;/p&gt;&lt;p style=&quot;margin:0px;margin-left:4px;&quot;&gt;- NavigationPartitionSystem:&amp;nbsp;&lt;span style=&quot;background-color: initial;&quot;&gt;UNavigationPartitionSystemBase&lt;/span&gt;&lt;/p&gt;&lt;p style=&quot;margin:0px;margin-left:4px;&quot;&gt;&lt;span style=&quot;background-color: initial;&quot;&gt;&lt;br&gt;&lt;/span&gt;&lt;/p&gt;&lt;p style=&quot;margin:0px;margin-left:4px;&quot;&gt;&lt;span style=&quot;background-color: initial;&quot;&gt;- Levels: TArray&amp;lt;ULevel*&amp;gt;&lt;/span&gt;&lt;/p&gt;&lt;hr size=&quot;1&quot;&gt;&lt;p style=&quot;margin:0px;margin-left:4px;&quot;&gt;&lt;br&gt;&lt;br&gt;&lt;/p&gt;" style="verticalAlign=top;align=left;overflow=fill;fontSize=12;fontFamily=Helvetica;html=1;rounded=0;shadow=0;comic=0;labelBackgroundColor=none;strokeWidth=1" parent="1" vertex="1">
          <mxGeometry x="-580" y="470" width="420" height="220" as="geometry" />
        </mxCell>
        <mxCell id="4xx8AByjb6Wwkfl3zzVE-2" value="" style="endArrow=none;html=1;rounded=0;exitX=0.996;exitY=0.174;exitDx=0;exitDy=0;entryX=0;entryY=0.598;entryDx=0;entryDy=0;entryPerimeter=0;edgeStyle=orthogonalEdgeStyle;exitPerimeter=0;endFill=0;startArrow=diamond;startFill=0;" parent="1" source="5d2195bd80daf111-18" target="4xx8AByjb6Wwkfl3zzVE-4" edge="1">
          <mxGeometry width="50" height="50" relative="1" as="geometry">
            <mxPoint x="610" y="330" as="sourcePoint" />
            <mxPoint x="450" y="80" as="targetPoint" />
          </mxGeometry>
        </mxCell>
        <mxCell id="4xx8AByjb6Wwkfl3zzVE-4" value="&lt;p style=&quot;margin:0px;margin-top:4px;text-align:center;&quot;&gt;&lt;span style=&quot;background-color: initial; text-align: left;&quot;&gt;&lt;b&gt;UNavigationSystemBase&lt;/b&gt;&lt;/span&gt;&lt;br&gt;&lt;/p&gt;&lt;hr size=&quot;1&quot;&gt;&lt;p style=&quot;margin:0px;margin-left:4px;&quot;&gt;+&amp;nbsp;&lt;/p&gt;&lt;hr size=&quot;1&quot;&gt;&lt;p style=&quot;margin:0px;margin-left:4px;&quot;&gt;+&amp;nbsp;&lt;br&gt;+&amp;nbsp;&lt;/p&gt;" style="verticalAlign=top;align=left;overflow=fill;fontSize=12;fontFamily=Helvetica;html=1;rounded=0;shadow=0;comic=0;labelBackgroundColor=none;strokeWidth=1" parent="1" vertex="1">
          <mxGeometry x="460" y="20" width="190" height="102" as="geometry" />
        </mxCell>
        <mxCell id="4xx8AByjb6Wwkfl3zzVE-8" style="rounded=0;orthogonalLoop=1;jettySize=auto;html=1;exitX=0.5;exitY=0;exitDx=0;exitDy=0;entryX=0.5;entryY=1;entryDx=0;entryDy=0;endArrow=block;endFill=0;edgeStyle=orthogonalEdgeStyle;" parent="1" source="jhM8vWiSoszHQmGIz2Cq-62" target="4xx8AByjb6Wwkfl3zzVE-4" edge="1">
          <mxGeometry relative="1" as="geometry">
            <mxPoint x="556" y="189.9999999999999" as="sourcePoint" />
          </mxGeometry>
        </mxCell>
        <mxCell id="4xx8AByjb6Wwkfl3zzVE-10" value="" style="endArrow=none;html=1;rounded=0;entryX=0;entryY=0.5;entryDx=0;entryDy=0;edgeStyle=orthogonalEdgeStyle;endFill=0;startArrow=diamond;startFill=0;" parent="1" source="jhM8vWiSoszHQmGIz2Cq-63" target="jhM8vWiSoszHQmGIz2Cq-91" edge="1">
          <mxGeometry width="50" height="50" relative="1" as="geometry">
            <mxPoint x="697.2820000000002" y="228.89599999999984" as="sourcePoint" />
            <mxPoint x="890" y="230" as="targetPoint" />
          </mxGeometry>
        </mxCell>
        <mxCell id="jhM8vWiSoszHQmGIz2Cq-55" style="edgeStyle=orthogonalEdgeStyle;rounded=0;orthogonalLoop=1;jettySize=auto;html=1;entryX=0.5;entryY=1;entryDx=0;entryDy=0;endArrow=block;endFill=0;" edge="1" parent="1" source="4xx8AByjb6Wwkfl3zzVE-11">
          <mxGeometry relative="1" as="geometry">
            <mxPoint x="1060" y="310" as="targetPoint" />
            <Array as="points">
              <mxPoint x="1267" y="490" />
              <mxPoint x="1060" y="490" />
            </Array>
          </mxGeometry>
        </mxCell>
        <mxCell id="4xx8AByjb6Wwkfl3zzVE-11" value="&lt;p style=&quot;margin:0px;margin-top:4px;text-align:center;&quot;&gt;&lt;b&gt;ARecastNavMesh&lt;/b&gt;&lt;/p&gt;&lt;hr size=&quot;1&quot;&gt;&lt;p style=&quot;margin:0px;margin-left:4px;&quot;&gt;&lt;span style=&quot;background-color: initial;&quot;&gt;- RecastNavMeshImpl: FPImpRecastNavMesh&lt;/span&gt;&lt;br&gt;&lt;/p&gt;&lt;hr size=&quot;1&quot;&gt;&lt;p style=&quot;margin:0px;margin-left:4px;&quot;&gt;+&amp;nbsp;&lt;br&gt;+&amp;nbsp;&lt;/p&gt;" style="verticalAlign=top;align=left;overflow=fill;fontSize=12;fontFamily=Helvetica;html=1;rounded=0;shadow=0;comic=0;labelBackgroundColor=none;strokeWidth=1" parent="1" vertex="1">
          <mxGeometry x="1130" y="700" width="274" height="176" as="geometry" />
        </mxCell>
        <mxCell id="4xx8AByjb6Wwkfl3zzVE-13" value="&lt;p style=&quot;margin:0px;margin-top:4px;text-align:center;&quot;&gt;&lt;i&gt;&lt;b&gt;FNavdataGenerator&lt;/b&gt;&lt;/i&gt;&lt;/p&gt;&lt;hr size=&quot;1&quot;&gt;&lt;p style=&quot;margin:0px;margin-left:4px;&quot;&gt;&lt;br&gt;&lt;/p&gt;&lt;hr size=&quot;1&quot;&gt;&lt;p style=&quot;margin:0px;margin-left:4px;&quot;&gt;&lt;br&gt;&lt;br&gt;&lt;/p&gt;" style="verticalAlign=top;align=left;overflow=fill;fontSize=12;fontFamily=Helvetica;html=1;rounded=0;shadow=0;comic=0;labelBackgroundColor=none;strokeWidth=1" parent="1" vertex="1">
          <mxGeometry x="1712" y="70" width="340" height="160" as="geometry" />
        </mxCell>
        <mxCell id="4xx8AByjb6Wwkfl3zzVE-14" value="" style="endArrow=none;html=1;rounded=0;entryX=-0.005;entryY=0.418;entryDx=0;entryDy=0;entryPerimeter=0;endFill=0;startArrow=diamond;startFill=0;edgeStyle=orthogonalEdgeStyle;" parent="1" source="jhM8vWiSoszHQmGIz2Cq-91" target="4xx8AByjb6Wwkfl3zzVE-13" edge="1">
          <mxGeometry width="50" height="50" relative="1" as="geometry">
            <mxPoint x="1276" y="180" as="sourcePoint" />
            <mxPoint x="1310" y="203" as="targetPoint" />
          </mxGeometry>
        </mxCell>
        <mxCell id="4xx8AByjb6Wwkfl3zzVE-15" value="&lt;p style=&quot;margin:0px;margin-top:4px;text-align:center;&quot;&gt;&lt;i&gt;&lt;b&gt;FRecastnavMeshGenerator&lt;/b&gt;&lt;/i&gt;&lt;/p&gt;&lt;hr size=&quot;1&quot;&gt;&lt;p style=&quot;margin:0px;margin-left:4px;&quot;&gt;&lt;br&gt;&lt;/p&gt;&lt;hr size=&quot;1&quot;&gt;&lt;p style=&quot;margin:0px;margin-left:4px;&quot;&gt;&lt;br&gt;&lt;br&gt;&lt;/p&gt;" style="verticalAlign=top;align=left;overflow=fill;fontSize=12;fontFamily=Helvetica;html=1;rounded=0;shadow=0;comic=0;labelBackgroundColor=none;strokeWidth=1" parent="1" vertex="1">
          <mxGeometry x="1710" y="400" width="340" height="160" as="geometry" />
        </mxCell>
        <mxCell id="4xx8AByjb6Wwkfl3zzVE-16" style="rounded=0;orthogonalLoop=1;jettySize=auto;html=1;entryX=0.5;entryY=1;entryDx=0;entryDy=0;endArrow=block;endFill=0;exitX=0.5;exitY=0;exitDx=0;exitDy=0;edgeStyle=orthogonalEdgeStyle;" parent="1" source="4xx8AByjb6Wwkfl3zzVE-15" target="4xx8AByjb6Wwkfl3zzVE-13" edge="1">
          <mxGeometry relative="1" as="geometry">
            <mxPoint x="1051" y="401" as="sourcePoint" />
            <mxPoint x="1050" y="320" as="targetPoint" />
          </mxGeometry>
        </mxCell>
        <mxCell id="4xx8AByjb6Wwkfl3zzVE-18" value="&lt;p style=&quot;margin:0px;margin-top:4px;text-align:center;&quot;&gt;&lt;b&gt;FPImpRecastnavMesh&lt;/b&gt;&lt;/p&gt;&lt;hr size=&quot;1&quot;&gt;&lt;p style=&quot;margin:0px;margin-left:4px;&quot;&gt;&lt;span style=&quot;background-color: initial;&quot;&gt;+ DetourNavMesh: dtNavMesh*&lt;/span&gt;&lt;br&gt;&lt;/p&gt;&lt;p style=&quot;margin:0px;margin-left:4px;&quot;&gt;&lt;span style=&quot;background-color: initial;&quot;&gt;+ NavMeshOwner:&amp;nbsp;&lt;/span&gt;ARecastNavMesh&lt;/p&gt;&lt;hr size=&quot;1&quot;&gt;&lt;p style=&quot;margin:0px;margin-left:4px;&quot;&gt;+&amp;nbsp;&lt;br&gt;+&amp;nbsp;&lt;/p&gt;" style="verticalAlign=top;align=left;overflow=fill;fontSize=12;fontFamily=Helvetica;html=1;rounded=0;shadow=0;comic=0;labelBackgroundColor=none;strokeWidth=1" parent="1" vertex="1">
          <mxGeometry x="1500" y="650" width="274" height="176" as="geometry" />
        </mxCell>
        <mxCell id="4xx8AByjb6Wwkfl3zzVE-19" value="" style="endArrow=none;html=1;rounded=0;exitX=0.999;exitY=0.152;exitDx=0;exitDy=0;exitPerimeter=0;entryX=-0.013;entryY=0.334;entryDx=0;entryDy=0;entryPerimeter=0;edgeStyle=orthogonalEdgeStyle;endFill=0;startArrow=diamondThin;startFill=0;" parent="1" source="4xx8AByjb6Wwkfl3zzVE-11" target="4xx8AByjb6Wwkfl3zzVE-18" edge="1">
          <mxGeometry width="50" height="50" relative="1" as="geometry">
            <mxPoint x="1222" y="213" as="sourcePoint" />
            <mxPoint x="1328" y="217" as="targetPoint" />
          </mxGeometry>
        </mxCell>
        <mxCell id="4xx8AByjb6Wwkfl3zzVE-20" value="&lt;p style=&quot;margin:0px;margin-top:4px;text-align:center;&quot;&gt;&lt;b&gt;&lt;i&gt;UNavigationPartitionSystemBase&lt;/i&gt;&lt;/b&gt;&lt;/p&gt;&lt;hr size=&quot;1&quot;&gt;&lt;p style=&quot;margin:0px;margin-left:4px;&quot;&gt;&lt;br&gt;&lt;/p&gt;&lt;hr size=&quot;1&quot;&gt;&lt;p style=&quot;margin:0px;margin-left:4px;&quot;&gt;&lt;br&gt;&lt;br&gt;&lt;/p&gt;" style="verticalAlign=top;align=left;overflow=fill;fontSize=12;fontFamily=Helvetica;html=1;rounded=0;shadow=0;comic=0;labelBackgroundColor=none;strokeWidth=1" parent="1" vertex="1">
          <mxGeometry x="415" y="970" width="265" height="220" as="geometry" />
        </mxCell>
        <mxCell id="4xx8AByjb6Wwkfl3zzVE-21" value="" style="endArrow=none;html=1;rounded=0;exitX=1;exitY=0.25;exitDx=0;exitDy=0;entryX=0;entryY=0.5;entryDx=0;entryDy=0;edgeStyle=orthogonalEdgeStyle;endFill=0;startArrow=diamond;startFill=0;" parent="1" source="5d2195bd80daf111-18" target="4xx8AByjb6Wwkfl3zzVE-20" edge="1">
          <mxGeometry width="50" height="50" relative="1" as="geometry">
            <mxPoint x="258" y="548" as="sourcePoint" />
            <mxPoint x="470" y="91" as="targetPoint" />
            <Array as="points">
              <mxPoint x="-160" y="540" />
              <mxPoint x="300" y="540" />
              <mxPoint x="300" y="1080" />
            </Array>
          </mxGeometry>
        </mxCell>
        <mxCell id="4xx8AByjb6Wwkfl3zzVE-22" value="&lt;p style=&quot;margin:0px;margin-top:4px;text-align:center;&quot;&gt;&lt;b&gt;&lt;i&gt;UNavigationPartitionSystem&lt;/i&gt;&lt;/b&gt;&lt;/p&gt;&lt;hr size=&quot;1&quot;&gt;&lt;p style=&quot;margin:0px;margin-left:4px;&quot;&gt;&lt;span style=&quot;background-color: initial;&quot;&gt;- m_pDataManager: IPathDataManager*&lt;/span&gt;&lt;br&gt;&lt;/p&gt;&lt;p style=&quot;margin:0px;margin-left:4px;&quot;&gt;- m_pPathData: IPathData*&lt;/p&gt;&lt;p style=&quot;margin:0px;margin-left:4px;&quot;&gt;&lt;span style=&quot;background-color: initial;&quot;&gt;&lt;/span&gt;&lt;/p&gt;&lt;p style=&quot;margin:0px;margin-left:4px;&quot;&gt;- m_pPathFinder: IPathFinder*&lt;span style=&quot;&quot;&gt;&lt;/span&gt;&lt;/p&gt;&lt;p style=&quot;margin:0px;margin-left:4px;&quot;&gt;- LoadednavPartitionActorsMap: TMap&amp;lt;FIntPoint, ANavmeshPartitionActor*&amp;gt;&lt;/p&gt;&lt;p style=&quot;margin:0px;margin-left:4px;&quot;&gt;- BackupActorMap: TMap&amp;lt;FintPoint, TArray&amp;lt;ANavmeshPartitionActor*&amp;gt;&amp;gt;&lt;/p&gt;&lt;hr size=&quot;1&quot;&gt;&lt;p style=&quot;margin:0px;margin-left:4px;&quot;&gt;&lt;br&gt;&lt;br&gt;&lt;/p&gt;" style="verticalAlign=top;align=left;overflow=fill;fontSize=12;fontFamily=Helvetica;html=1;rounded=0;shadow=0;comic=0;labelBackgroundColor=none;strokeWidth=1;container=0;" parent="1" vertex="1">
          <mxGeometry x="345" y="1310" width="420" height="220" as="geometry" />
        </mxCell>
        <mxCell id="4xx8AByjb6Wwkfl3zzVE-23" style="rounded=0;orthogonalLoop=1;jettySize=auto;html=1;entryX=0.5;entryY=1;entryDx=0;entryDy=0;endArrow=blockThin;endFill=0;exitX=0.479;exitY=-0.017;exitDx=0;exitDy=0;exitPerimeter=0;edgeStyle=orthogonalEdgeStyle;" parent="1" source="4xx8AByjb6Wwkfl3zzVE-22" target="4xx8AByjb6Wwkfl3zzVE-20" edge="1">
          <mxGeometry relative="1" as="geometry">
            <mxPoint x="1500" y="408" as="sourcePoint" />
            <mxPoint x="1500" y="310" as="targetPoint" />
          </mxGeometry>
        </mxCell>
        <mxCell id="4xx8AByjb6Wwkfl3zzVE-24" value="&lt;p style=&quot;margin:0px;margin-top:4px;text-align:center;&quot;&gt;&lt;b&gt;&lt;i&gt;AnavmeshPartitionActor&lt;/i&gt;&lt;/b&gt;&lt;/p&gt;&lt;hr size=&quot;1&quot;&gt;&lt;p style=&quot;margin:0px;margin-left:4px;&quot;&gt;&lt;br&gt;&lt;/p&gt;&lt;hr size=&quot;1&quot;&gt;&lt;p style=&quot;margin:0px;margin-left:4px;&quot;&gt;&lt;br&gt;&lt;br&gt;&lt;/p&gt;" style="verticalAlign=top;align=left;overflow=fill;fontSize=12;fontFamily=Helvetica;html=1;rounded=0;shadow=0;comic=0;labelBackgroundColor=none;strokeWidth=1" parent="1" vertex="1">
          <mxGeometry x="980" y="1300" width="420" height="220" as="geometry" />
        </mxCell>
        <mxCell id="4xx8AByjb6Wwkfl3zzVE-25" value="" style="endArrow=none;html=1;rounded=0;exitX=1.009;exitY=0.395;exitDx=0;exitDy=0;exitPerimeter=0;entryX=-0.006;entryY=0.425;entryDx=0;entryDy=0;entryPerimeter=0;edgeStyle=orthogonalEdgeStyle;endFill=0;startArrow=diamondThin;startFill=0;" parent="1" source="4xx8AByjb6Wwkfl3zzVE-22" target="4xx8AByjb6Wwkfl3zzVE-24" edge="1">
          <mxGeometry width="50" height="50" relative="1" as="geometry">
            <mxPoint x="910" y="1350" as="sourcePoint" />
            <mxPoint x="1062" y="1352" as="targetPoint" />
          </mxGeometry>
        </mxCell>
        <mxCell id="4xx8AByjb6Wwkfl3zzVE-28" style="edgeStyle=orthogonalEdgeStyle;rounded=0;orthogonalLoop=1;jettySize=auto;html=1;dashed=1;dashPattern=8 8;entryX=0.001;entryY=0.387;entryDx=0;entryDy=0;entryPerimeter=0;" parent="1" source="4xx8AByjb6Wwkfl3zzVE-27" target="4xx8AByjb6Wwkfl3zzVE-22" edge="1">
          <mxGeometry relative="1" as="geometry">
            <mxPoint x="420" y="1390" as="targetPoint" />
          </mxGeometry>
        </mxCell>
        <mxCell id="4xx8AByjb6Wwkfl3zzVE-27" value="加载的Partition" style="shape=note2;boundedLbl=1;whiteSpace=wrap;html=1;size=25;verticalAlign=top;align=center;" parent="1" vertex="1">
          <mxGeometry x="120" y="1230" width="120" height="60" as="geometry" />
        </mxCell>
        <mxCell id="4xx8AByjb6Wwkfl3zzVE-30" value="&lt;p style=&quot;margin:0px;margin-top:4px;text-align:center;&quot;&gt;&lt;i&gt;&lt;b&gt;ULevel&lt;/b&gt;&lt;/i&gt;&lt;/p&gt;&lt;hr size=&quot;1&quot;&gt;&lt;p style=&quot;margin:0px;margin-left:4px;&quot;&gt;- NavdataChunks: TArray&amp;lt;UNavigationDataChunk*&amp;gt;&lt;/p&gt;&lt;hr size=&quot;1&quot;&gt;&lt;p style=&quot;margin:0px;margin-left:4px;&quot;&gt;&lt;br&gt;&lt;br&gt;&lt;/p&gt;" style="verticalAlign=top;align=left;overflow=fill;fontSize=12;fontFamily=Helvetica;html=1;rounded=0;shadow=0;comic=0;labelBackgroundColor=none;strokeWidth=1" parent="1" vertex="1">
          <mxGeometry x="20" y="1600" width="420" height="220" as="geometry" />
        </mxCell>
        <mxCell id="4xx8AByjb6Wwkfl3zzVE-32" value="&lt;p style=&quot;margin:0px;margin-top:4px;text-align:center;&quot;&gt;&lt;i&gt;&lt;b&gt;UNavigationDataChunk&lt;/b&gt;&lt;/i&gt;&lt;/p&gt;&lt;hr size=&quot;1&quot;&gt;&lt;p style=&quot;margin:0px;margin-left:4px;&quot;&gt;&lt;br&gt;&lt;/p&gt;&lt;hr size=&quot;1&quot;&gt;&lt;p style=&quot;margin:0px;margin-left:4px;&quot;&gt;&lt;br&gt;&lt;br&gt;&lt;/p&gt;" style="verticalAlign=top;align=left;overflow=fill;fontSize=12;fontFamily=Helvetica;html=1;rounded=0;shadow=0;comic=0;labelBackgroundColor=none;strokeWidth=1" parent="1" vertex="1">
          <mxGeometry x="620" y="1600" width="420" height="212" as="geometry" />
        </mxCell>
        <mxCell id="4xx8AByjb6Wwkfl3zzVE-33" style="edgeStyle=orthogonalEdgeStyle;rounded=0;orthogonalLoop=1;jettySize=auto;html=1;entryX=-0.01;entryY=0.188;entryDx=0;entryDy=0;entryPerimeter=0;exitX=1.002;exitY=0.178;exitDx=0;exitDy=0;exitPerimeter=0;endArrow=none;endFill=0;startArrow=diamond;startFill=0;" parent="1" source="4xx8AByjb6Wwkfl3zzVE-30" target="4xx8AByjb6Wwkfl3zzVE-32" edge="1">
          <mxGeometry relative="1" as="geometry" />
        </mxCell>
        <mxCell id="4xx8AByjb6Wwkfl3zzVE-35" style="edgeStyle=orthogonalEdgeStyle;rounded=0;orthogonalLoop=1;jettySize=auto;html=1;entryX=0.5;entryY=1;entryDx=0;entryDy=0;endArrow=block;endFill=0;" parent="1" source="4xx8AByjb6Wwkfl3zzVE-34" target="4xx8AByjb6Wwkfl3zzVE-32" edge="1">
          <mxGeometry relative="1" as="geometry" />
        </mxCell>
        <mxCell id="4xx8AByjb6Wwkfl3zzVE-37" style="edgeStyle=orthogonalEdgeStyle;rounded=0;orthogonalLoop=1;jettySize=auto;html=1;exitX=1.002;exitY=0.21;exitDx=0;exitDy=0;exitPerimeter=0;endArrow=none;endFill=0;startArrow=diamond;startFill=0;" parent="1" source="4xx8AByjb6Wwkfl3zzVE-34" target="4xx8AByjb6Wwkfl3zzVE-36" edge="1">
          <mxGeometry relative="1" as="geometry" />
        </mxCell>
        <mxCell id="4xx8AByjb6Wwkfl3zzVE-34" value="&lt;p style=&quot;margin:0px;margin-top:4px;text-align:center;&quot;&gt;&lt;i&gt;&lt;b&gt;URecastNavMeshdataChunk&lt;/b&gt;&lt;/i&gt;&lt;/p&gt;&lt;hr size=&quot;1&quot;&gt;&lt;p style=&quot;margin:0px;margin-left:4px;&quot;&gt;- Tiles: TArray&amp;lt;FRecastTileData&amp;gt;&lt;/p&gt;&lt;hr size=&quot;1&quot;&gt;&lt;p style=&quot;margin:0px;margin-left:4px;&quot;&gt;&lt;br&gt;&lt;br&gt;&lt;/p&gt;" style="verticalAlign=top;align=left;overflow=fill;fontSize=12;fontFamily=Helvetica;html=1;rounded=0;shadow=0;comic=0;labelBackgroundColor=none;strokeWidth=1" parent="1" vertex="1">
          <mxGeometry x="620" y="1890" width="420" height="202" as="geometry" />
        </mxCell>
        <mxCell id="4xx8AByjb6Wwkfl3zzVE-36" value="&lt;p style=&quot;margin:0px;margin-top:4px;text-align:center;&quot;&gt;&lt;b&gt;&lt;i&gt;FRecastTileData&lt;/i&gt;&lt;/b&gt;&lt;/p&gt;&lt;hr size=&quot;1&quot;&gt;&lt;p style=&quot;margin:0px;margin-left:4px;&quot;&gt;- TileRawData: TSharedPtr&amp;lt;FRawData&amp;gt;&lt;/p&gt;&lt;p style=&quot;margin:0px;margin-left:4px;&quot;&gt;&lt;br&gt;&lt;/p&gt;&lt;p style=&quot;margin:0px;margin-left:4px;&quot;&gt;- TileCacheRawData: TSharedPtr&amp;lt;FRawData&amp;gt;&lt;br&gt;&lt;/p&gt;&lt;hr size=&quot;1&quot;&gt;&lt;p style=&quot;margin:0px;margin-left:4px;&quot;&gt;&lt;br&gt;&lt;br&gt;&lt;/p&gt;" style="verticalAlign=top;align=left;overflow=fill;fontSize=12;fontFamily=Helvetica;html=1;rounded=0;shadow=0;comic=0;labelBackgroundColor=none;strokeWidth=1" parent="1" vertex="1">
          <mxGeometry x="1170" y="1900" width="420" height="202" as="geometry" />
        </mxCell>
        <mxCell id="4xx8AByjb6Wwkfl3zzVE-38" value="&lt;div style=&quot;&quot;&gt;&lt;div style=&quot;font-size: 9.8pt;&quot;&gt;CreateNavmeshProxyGlobalActorCmd&lt;/div&gt;&lt;/div&gt;" style="rounded=1;whiteSpace=wrap;html=1;labelBackgroundColor=default;fontColor=#000000;fontFamily=Verdana;" parent="1" vertex="1">
          <mxGeometry x="-300" y="2350" width="1920" height="60" as="geometry" />
        </mxCell>
        <mxCell id="4xx8AByjb6Wwkfl3zzVE-39" value="创建NavmeshChunkSplitGenerator" style="rounded=1;whiteSpace=wrap;html=1;labelBackgroundColor=default;fontColor=#000000;fontFamily=Verdana;" parent="1" vertex="1">
          <mxGeometry x="-300" y="2410" width="390" height="60" as="geometry" />
        </mxCell>
        <mxCell id="4xx8AByjb6Wwkfl3zzVE-40" value="Generator.LoadNavmeshData" style="rounded=1;whiteSpace=wrap;html=1;labelBackgroundColor=default;fontColor=#000000;fontFamily=Verdana;strokeColor=#FF00FF;" parent="1" vertex="1">
          <mxGeometry x="2600" y="2260" width="1180" height="60" as="geometry" />
        </mxCell>
        <mxCell id="4xx8AByjb6Wwkfl3zzVE-41" value="&lt;div style=&quot;&quot;&gt;&lt;div style=&quot;font-size: 9.8pt;&quot;&gt;Generator.CreateNavmeshProxyGlobalActor&lt;/div&gt;&lt;/div&gt;" style="rounded=1;whiteSpace=wrap;html=1;labelBackgroundColor=#FFFFFF;fontColor=#000000;fontFamily=Verdana;" parent="1" vertex="1">
          <mxGeometry x="560" y="2410" width="990" height="60" as="geometry" />
        </mxCell>
        <mxCell id="4xx8AByjb6Wwkfl3zzVE-42" value="m_pDataManager=CreatePathDataManager&lt;br&gt;创建manager负责loadPathData" style="rounded=1;whiteSpace=wrap;html=1;labelBackgroundColor=default;fontColor=#000000;fontFamily=Verdana;strokeColor=#FF00FF;" parent="1" vertex="1">
          <mxGeometry x="2620" y="2320" width="270" height="60" as="geometry" />
        </mxCell>
        <mxCell id="4xx8AByjb6Wwkfl3zzVE-43" value="&lt;div style=&quot;&quot;&gt;&lt;div style=&quot;font-size: 9.8pt;&quot;&gt;m_pPathData = m_pDataManager-&amp;gt;LoadFromFile&lt;/div&gt;&lt;div style=&quot;font-size: 9.8pt;&quot;&gt;加载pathdata&lt;/div&gt;&lt;/div&gt;" style="rounded=1;whiteSpace=wrap;html=1;labelBackgroundColor=#FFFFFF;fontColor=#000000;fontFamily=Verdana;strokeColor=#FF00FF;" parent="1" vertex="1">
          <mxGeometry x="2890" y="2320" width="530" height="60" as="geometry" />
        </mxCell>
        <mxCell id="4xx8AByjb6Wwkfl3zzVE-44" value="&lt;div style=&quot;&quot;&gt;&lt;div style=&quot;font-size: 9.8pt;&quot;&gt;m_pPathFinder=CreatePathFinder&lt;/div&gt;&lt;div style=&quot;font-size: 9.8pt;&quot;&gt;创建pathFinder，pathFinder是对pathData的封装&lt;/div&gt;&lt;/div&gt;" style="rounded=1;whiteSpace=wrap;html=1;labelBackgroundColor=#FFFFFF;fontColor=#000000;fontFamily=Verdana;strokeColor=#FF00FF;" parent="1" vertex="1">
          <mxGeometry x="3424" y="2320" width="270" height="60" as="geometry" />
        </mxCell>
        <mxCell id="4xx8AByjb6Wwkfl3zzVE-45" value="&lt;div style=&quot;&quot;&gt;&lt;div style=&quot;font-size: 9.8pt;&quot;&gt;获得ANavmeshPartitionGlobalActor&lt;/div&gt;&lt;div style=&quot;font-size: 9.8pt;&quot;&gt;从world中获得或者新创建&lt;/div&gt;&lt;/div&gt;" style="rounded=1;whiteSpace=wrap;html=1;labelBackgroundColor=#FFFFFF;fontColor=#000000;fontFamily=Verdana;" parent="1" vertex="1">
          <mxGeometry x="580" y="2470" width="270" height="60" as="geometry" />
        </mxCell>
        <mxCell id="4xx8AByjb6Wwkfl3zzVE-46" value="&lt;div style=&quot;&quot;&gt;&lt;div style=&quot;font-size: 9.8pt;&quot;&gt;&lt;div style=&quot;&quot;&gt;&lt;div style=&quot;font-size: 9.8pt;&quot;&gt;loadPathDataImp&lt;/div&gt;&lt;/div&gt;&lt;/div&gt;&lt;/div&gt;" style="rounded=1;whiteSpace=wrap;html=1;labelBackgroundColor=#FFFFFF;fontColor=#000000;fontFamily=Verdana;strokeColor=#FF00FF;" parent="1" vertex="1">
          <mxGeometry x="2900" y="2380" width="520" height="60" as="geometry" />
        </mxCell>
        <mxCell id="4xx8AByjb6Wwkfl3zzVE-47" value="&lt;div style=&quot;&quot;&gt;&lt;div style=&quot;font-size: 9.8pt;&quot;&gt;&lt;div style=&quot;&quot;&gt;&lt;div style=&quot;font-size: 9.8pt;&quot;&gt;&lt;div style=&quot;&quot;&gt;&lt;div style=&quot;font-size: 9.8pt;&quot;&gt;cachePathData&lt;/div&gt;&lt;/div&gt;&lt;/div&gt;&lt;/div&gt;&lt;/div&gt;&lt;/div&gt;" style="rounded=1;whiteSpace=wrap;html=1;labelBackgroundColor=#FFFFFF;fontColor=#000000;fontFamily=Verdana;strokeColor=#FF00FF;" parent="1" vertex="1">
          <mxGeometry x="3290" y="2440" width="126" height="60" as="geometry" />
        </mxCell>
        <mxCell id="4xx8AByjb6Wwkfl3zzVE-48" value="&lt;div style=&quot;&quot;&gt;&lt;div style=&quot;font-size: 9.8pt;&quot;&gt;&lt;div style=&quot;&quot;&gt;&lt;div style=&quot;font-size: 9.8pt;&quot;&gt;&lt;div style=&quot;&quot;&gt;&lt;div style=&quot;font-size: 9.8pt;&quot;&gt;if(&quot;nav&quot;){DetourNavmeshData::LoadDetourNavMesh}&lt;/div&gt;&lt;div style=&quot;font-size: 9.8pt;&quot;&gt;&lt;div&gt;&lt;div style=&quot;font-size: 9.8pt;&quot;&gt;if(&quot;csp&quot;){DetourNavmeshData::LoadNavmeshPartition}&lt;/div&gt;&lt;/div&gt;&lt;/div&gt;&lt;/div&gt;&lt;/div&gt;&lt;/div&gt;&lt;/div&gt;&lt;/div&gt;" style="rounded=1;whiteSpace=wrap;html=1;labelBackgroundColor=#FFFFFF;fontColor=#000000;fontFamily=Verdana;strokeColor=#FF00FF;" parent="1" vertex="1">
          <mxGeometry x="2900" y="2440" width="390" height="60" as="geometry" />
        </mxCell>
        <mxCell id="4xx8AByjb6Wwkfl3zzVE-50" style="edgeStyle=orthogonalEdgeStyle;rounded=0;orthogonalLoop=1;jettySize=auto;html=1;entryX=0;entryY=0.5;entryDx=0;entryDy=0;dashed=1;dashPattern=8 8;" parent="1" source="4xx8AByjb6Wwkfl3zzVE-49" target="4xx8AByjb6Wwkfl3zzVE-38" edge="1">
          <mxGeometry relative="1" as="geometry" />
        </mxCell>
        <mxCell id="4xx8AByjb6Wwkfl3zzVE-49" value="生成ANavmeshPartitionGlobalActor" style="shape=note2;boundedLbl=1;whiteSpace=wrap;html=1;size=25;verticalAlign=top;align=center;fillColor=#3399FF;" parent="1" vertex="1">
          <mxGeometry x="-660" y="2350" width="210" height="60" as="geometry" />
        </mxCell>
        <mxCell id="4xx8AByjb6Wwkfl3zzVE-51" value="&lt;div style=&quot;&quot;&gt;&lt;div style=&quot;font-size: 9.8pt;&quot;&gt;&lt;div style=&quot;&quot;&gt;&lt;div style=&quot;font-size: 9.8pt;&quot;&gt;NavmeshPartitionGlobalActor-&amp;gt;NavmeshPartitionGlobalComp-&amp;gt;LoadData&lt;/div&gt;&lt;div style=&quot;font-size: 9.8pt;&quot;&gt;从NavmeshPartition中加载数据&lt;/div&gt;&lt;/div&gt;&lt;/div&gt;&lt;/div&gt;" style="rounded=1;whiteSpace=wrap;html=1;labelBackgroundColor=#FFFFFF;fontColor=#000000;fontFamily=Verdana;" parent="1" vertex="1">
          <mxGeometry x="850" y="2470" width="520" height="60" as="geometry" />
        </mxCell>
        <mxCell id="4xx8AByjb6Wwkfl3zzVE-52" value="&lt;div style=&quot;&quot;&gt;&lt;div style=&quot;font-size: 9.8pt;&quot;&gt;SaveWorld&lt;/div&gt;&lt;/div&gt;" style="rounded=1;whiteSpace=wrap;html=1;labelBackgroundColor=#FFFFFF;fontColor=#000000;fontFamily=Verdana;" parent="1" vertex="1">
          <mxGeometry x="1370" y="2470" width="120" height="60" as="geometry" />
        </mxCell>
        <mxCell id="4xx8AByjb6Wwkfl3zzVE-54" value="Generator.LoadNavmeshData" style="rounded=1;whiteSpace=wrap;html=1;labelBackgroundColor=default;fontColor=#000000;fontFamily=Verdana;strokeColor=#FF00FF;" parent="1" vertex="1">
          <mxGeometry x="90" y="2410" width="470" height="60" as="geometry" />
        </mxCell>
        <mxCell id="4xx8AByjb6Wwkfl3zzVE-56" style="edgeStyle=orthogonalEdgeStyle;rounded=0;orthogonalLoop=1;jettySize=auto;html=1;entryX=0;entryY=0.5;entryDx=0;entryDy=0;dashed=1;dashPattern=8 8;" parent="1" source="4xx8AByjb6Wwkfl3zzVE-55" target="4xx8AByjb6Wwkfl3zzVE-40" edge="1">
          <mxGeometry relative="1" as="geometry" />
        </mxCell>
        <mxCell id="4xx8AByjb6Wwkfl3zzVE-55" value="加载NavmeshData" style="shape=note2;boundedLbl=1;whiteSpace=wrap;html=1;size=25;verticalAlign=top;align=center;strokeColor=#FF00FF;" parent="1" vertex="1">
          <mxGeometry x="2180" y="2260" width="120" height="60" as="geometry" />
        </mxCell>
        <mxCell id="4xx8AByjb6Wwkfl3zzVE-57" value="&lt;div style=&quot;&quot;&gt;&lt;div style=&quot;font-size: 9.8pt;&quot;&gt;CreateNavmeshProxyGlobalActorCmd&lt;/div&gt;&lt;/div&gt;" style="rounded=1;whiteSpace=wrap;html=1;labelBackgroundColor=default;fontColor=#000000;fontFamily=Verdana;" parent="1" vertex="1">
          <mxGeometry x="-306" y="2790" width="3196" height="60" as="geometry" />
        </mxCell>
        <mxCell id="4xx8AByjb6Wwkfl3zzVE-58" value="创建NavmeshChunkSplitGenerator" style="rounded=1;whiteSpace=wrap;html=1;labelBackgroundColor=default;fontColor=#000000;fontFamily=Verdana;" parent="1" vertex="1">
          <mxGeometry x="-306" y="2850" width="390" height="60" as="geometry" />
        </mxCell>
        <mxCell id="4xx8AByjb6Wwkfl3zzVE-59" value="&lt;div style=&quot;&quot;&gt;&lt;div style=&quot;font-size: 9.8pt;&quot;&gt;Generator.StartChunkSplit&lt;/div&gt;&lt;/div&gt;" style="rounded=1;whiteSpace=wrap;html=1;labelBackgroundColor=#FFFFFF;fontColor=#000000;fontFamily=Verdana;" parent="1" vertex="1">
          <mxGeometry x="554" y="2850" width="1866" height="60" as="geometry" />
        </mxCell>
        <mxCell id="4xx8AByjb6Wwkfl3zzVE-60" value="&lt;div style=&quot;&quot;&gt;&lt;div style=&quot;font-size: 9.8pt;&quot;&gt;&lt;div style=&quot;&quot;&gt;&lt;div style=&quot;font-size: 9.8pt;&quot;&gt;SortTilesToChunks&lt;/div&gt;&lt;div style=&quot;font-size: 9.8pt;&quot;&gt;整理结构为TMap&amp;lt;点，DetailChunkInfo&lt;span style=&quot;font-size: 9.8pt;&quot;&gt;&amp;gt;&amp;gt;&lt;/span&gt;&lt;/div&gt;&lt;div style=&quot;font-size: 9.8pt;&quot;&gt;一个chunk包含多个该位置上的多层tile&lt;/div&gt;&lt;/div&gt;&lt;/div&gt;&lt;/div&gt;" style="rounded=1;whiteSpace=wrap;html=1;labelBackgroundColor=#FFFFFF;fontColor=#000000;fontFamily=Verdana;strokeColor=default;fillColor=default;" parent="1" vertex="1">
          <mxGeometry x="574" y="2910" width="270" height="60" as="geometry" />
        </mxCell>
        <mxCell id="4xx8AByjb6Wwkfl3zzVE-61" style="edgeStyle=orthogonalEdgeStyle;rounded=0;orthogonalLoop=1;jettySize=auto;html=1;entryX=0;entryY=0.5;entryDx=0;entryDy=0;dashed=1;dashPattern=8 8;" parent="1" source="4xx8AByjb6Wwkfl3zzVE-62" target="4xx8AByjb6Wwkfl3zzVE-57" edge="1">
          <mxGeometry relative="1" as="geometry" />
        </mxCell>
        <mxCell id="4xx8AByjb6Wwkfl3zzVE-62" value="分块StartChunkSplitCmd" style="shape=note2;boundedLbl=1;whiteSpace=wrap;html=1;size=25;verticalAlign=top;align=center;fillColor=#3399FF;" parent="1" vertex="1">
          <mxGeometry x="-666" y="2790" width="210" height="60" as="geometry" />
        </mxCell>
        <mxCell id="4xx8AByjb6Wwkfl3zzVE-63" value="&lt;div style=&quot;&quot;&gt;&lt;div style=&quot;font-size: 9.8pt;&quot;&gt;&lt;div style=&quot;&quot;&gt;&lt;div style=&quot;font-size: 9.8pt;&quot;&gt;构建与邻接chunk的连接关系&lt;/div&gt;&lt;/div&gt;&lt;/div&gt;&lt;/div&gt;" style="rounded=1;whiteSpace=wrap;html=1;labelBackgroundColor=#FFFFFF;fontColor=#000000;fontFamily=Verdana;" parent="1" vertex="1">
          <mxGeometry x="844" y="2910" width="520" height="60" as="geometry" />
        </mxCell>
        <mxCell id="4xx8AByjb6Wwkfl3zzVE-64" value="&lt;div style=&quot;&quot;&gt;&lt;div style=&quot;font-size: 9.8pt;&quot;&gt;对&lt;/div&gt;&lt;/div&gt;" style="rounded=1;whiteSpace=wrap;html=1;labelBackgroundColor=#FFFFFF;fontColor=#000000;fontFamily=Verdana;" parent="1" vertex="1">
          <mxGeometry x="1364" y="2910" width="624" height="60" as="geometry" />
        </mxCell>
        <mxCell id="4xx8AByjb6Wwkfl3zzVE-65" value="Generator.LoadNavmeshData" style="rounded=1;whiteSpace=wrap;html=1;labelBackgroundColor=default;fontColor=#000000;fontFamily=Verdana;strokeColor=#FF00FF;" parent="1" vertex="1">
          <mxGeometry x="84" y="2850" width="470" height="60" as="geometry" />
        </mxCell>
        <mxCell id="4xx8AByjb6Wwkfl3zzVE-67" value="&lt;div style=&quot;&quot;&gt;&lt;div style=&quot;font-size: 9.8pt;&quot;&gt;&lt;div style=&quot;&quot;&gt;&lt;div style=&quot;font-size: 9.8pt;&quot;&gt;遍历所有tile&lt;/div&gt;&lt;/div&gt;&lt;/div&gt;&lt;/div&gt;" style="rounded=1;whiteSpace=wrap;html=1;labelBackgroundColor=#FFFFFF;fontColor=#000000;fontFamily=Verdana;" parent="1" vertex="1">
          <mxGeometry x="844" y="2970" width="520" height="60" as="geometry" />
        </mxCell>
        <mxCell id="4xx8AByjb6Wwkfl3zzVE-68" value="&lt;div style=&quot;&quot;&gt;&lt;div style=&quot;font-size: 9.8pt;&quot;&gt;&lt;div style=&quot;&quot;&gt;&lt;div style=&quot;font-size: 9.8pt;&quot;&gt;遍历CurTile的polys&lt;/div&gt;&lt;/div&gt;&lt;/div&gt;&lt;/div&gt;" style="rounded=1;whiteSpace=wrap;html=1;labelBackgroundColor=#FFFFFF;fontColor=#000000;fontFamily=Verdana;" parent="1" vertex="1">
          <mxGeometry x="880" y="3030" width="430" height="60" as="geometry" />
        </mxCell>
        <mxCell id="4xx8AByjb6Wwkfl3zzVE-69" value="&lt;div style=&quot;&quot;&gt;&lt;div style=&quot;font-size: 9.8pt;&quot;&gt;&lt;div style=&quot;&quot;&gt;&lt;div style=&quot;font-size: 9.8pt;&quot;&gt;遍历Poly的links&lt;/div&gt;&lt;/div&gt;&lt;/div&gt;&lt;/div&gt;" style="rounded=1;whiteSpace=wrap;html=1;labelBackgroundColor=#FFFFFF;fontColor=#000000;fontFamily=Verdana;" parent="1" vertex="1">
          <mxGeometry x="900" y="3090" width="390" height="60" as="geometry" />
        </mxCell>
        <mxCell id="4xx8AByjb6Wwkfl3zzVE-70" value="&lt;div style=&quot;&quot;&gt;&lt;div style=&quot;font-size: 9.8pt;&quot;&gt;&lt;div style=&quot;&quot;&gt;&lt;div style=&quot;font-size: 9.8pt;&quot;&gt;筛选出连接外部tile的link&lt;/div&gt;&lt;/div&gt;&lt;/div&gt;&lt;/div&gt;" style="rounded=1;whiteSpace=wrap;html=1;labelBackgroundColor=#FFFFFF;fontColor=#000000;fontFamily=Verdana;" parent="1" vertex="1">
          <mxGeometry x="920" y="3150" width="170" height="60" as="geometry" />
        </mxCell>
        <mxCell id="4xx8AByjb6Wwkfl3zzVE-71" value="创建于外部tile连接的连接关系" style="rounded=1;whiteSpace=wrap;html=1;labelBackgroundColor=#FFFFFF;fontColor=#000000;fontFamily=Verdana;" parent="1" vertex="1">
          <mxGeometry x="1090" y="3150" width="170" height="60" as="geometry" />
        </mxCell>
        <mxCell id="4xx8AByjb6Wwkfl3zzVE-72" value="遍历所有 Chunk" style="rounded=1;whiteSpace=wrap;html=1;labelBackgroundColor=#FFFFFF;fontColor=#000000;fontFamily=Verdana;" parent="1" vertex="1">
          <mxGeometry x="1365" y="2970" width="625" height="60" as="geometry" />
        </mxCell>
        <mxCell id="4xx8AByjb6Wwkfl3zzVE-73" value="&lt;div style=&quot;&quot;&gt;&lt;div style=&quot;font-size: 9.8pt;&quot;&gt;SortEdgeNodes&lt;/div&gt;&lt;/div&gt;对所有外部连接进行排序&lt;br&gt;排序规则：邻接不同tile的node之间的路径最短的" style="rounded=1;whiteSpace=wrap;html=1;labelBackgroundColor=#FFFFFF;fontColor=#000000;fontFamily=Verdana;" parent="1" vertex="1">
          <mxGeometry x="1364" y="3030" width="456" height="60" as="geometry" />
        </mxCell>
        <mxCell id="4xx8AByjb6Wwkfl3zzVE-74" value="&lt;div style=&quot;&quot;&gt;&lt;div style=&quot;font-size: 9.8pt;&quot;&gt;UpdateNodeSortInfo&lt;/div&gt;&lt;/div&gt;&lt;div style=&quot;&quot;&gt;&lt;div style=&quot;font-size: 9.8pt;&quot;&gt;&lt;/div&gt;&lt;/div&gt;" style="rounded=1;whiteSpace=wrap;html=1;labelBackgroundColor=#FFFFFF;fontColor=#000000;fontFamily=Verdana;" parent="1" vertex="1">
          <mxGeometry x="1515" y="3090" width="140" height="60" as="geometry" />
        </mxCell>
        <mxCell id="4xx8AByjb6Wwkfl3zzVE-75" value="&lt;div style=&quot;&quot;&gt;&lt;div style=&quot;font-size: 9.8pt;&quot;&gt;创建SortInfos&lt;/div&gt;&lt;div style=&quot;font-size: 9.8pt;&quot;&gt;辅助结构，用来排序&lt;/div&gt;&lt;/div&gt;&lt;div style=&quot;&quot;&gt;&lt;div style=&quot;font-size: 9.8pt;&quot;&gt;&lt;/div&gt;&lt;/div&gt;" style="rounded=1;whiteSpace=wrap;html=1;labelBackgroundColor=#FFFFFF;fontColor=#000000;fontFamily=Verdana;" parent="1" vertex="1">
          <mxGeometry x="1370" y="3090" width="145" height="60" as="geometry" />
        </mxCell>
        <mxCell id="4xx8AByjb6Wwkfl3zzVE-76" value="&lt;div style=&quot;&quot;&gt;&lt;div style=&quot;font-size: 9.8pt;&quot;&gt;取startNode和endNode的poly的第一个点进行寻路。&lt;/div&gt;&lt;div style=&quot;font-size: 9.8pt;&quot;&gt;路径即为cost&lt;/div&gt;&lt;div style=&quot;font-size: 9.8pt;&quot;&gt;&lt;br&gt;&lt;/div&gt;&lt;/div&gt;&lt;div style=&quot;&quot;&gt;&lt;div style=&quot;font-size: 9.8pt;&quot;&gt;&lt;/div&gt;&lt;/div&gt;" style="rounded=1;whiteSpace=wrap;html=1;labelBackgroundColor=#FFFFFF;fontColor=#000000;fontFamily=Verdana;" parent="1" vertex="1">
          <mxGeometry x="1517" y="3150" width="140" height="90" as="geometry" />
        </mxCell>
        <mxCell id="4xx8AByjb6Wwkfl3zzVE-77" value="&lt;div style=&quot;&quot;&gt;&lt;div style=&quot;font-size: 9.8pt;&quot;&gt;SortInfos排序&lt;/div&gt;&lt;/div&gt;&lt;div style=&quot;&quot;&gt;&lt;div style=&quot;font-size: 9.8pt;&quot;&gt;&lt;/div&gt;&lt;/div&gt;" style="rounded=1;whiteSpace=wrap;html=1;labelBackgroundColor=#FFFFFF;fontColor=#000000;fontFamily=Verdana;" parent="1" vertex="1">
          <mxGeometry x="1657" y="3090" width="145" height="60" as="geometry" />
        </mxCell>
        <mxCell id="jhM8vWiSoszHQmGIz2Cq-56" style="edgeStyle=orthogonalEdgeStyle;rounded=0;orthogonalLoop=1;jettySize=auto;html=1;endArrow=blockThin;endFill=0;" edge="1" parent="1" source="f1sxtVWSb66M2AAOYYNP-1">
          <mxGeometry relative="1" as="geometry">
            <mxPoint x="1060" y="310" as="targetPoint" />
            <Array as="points">
              <mxPoint x="937" y="490" />
              <mxPoint x="1061" y="490" />
              <mxPoint x="1061" y="310" />
            </Array>
          </mxGeometry>
        </mxCell>
        <mxCell id="f1sxtVWSb66M2AAOYYNP-1" value="&lt;p style=&quot;margin:0px;margin-top:4px;text-align:center;&quot;&gt;&lt;b&gt;AAbstractNavData&lt;/b&gt;&lt;/p&gt;&lt;hr size=&quot;1&quot;&gt;&lt;p style=&quot;margin:0px;margin-left:4px;&quot;&gt;&lt;br&gt;&lt;/p&gt;&lt;hr size=&quot;1&quot;&gt;&lt;p style=&quot;margin:0px;margin-left:4px;&quot;&gt;+&amp;nbsp;&lt;br&gt;+&amp;nbsp;&lt;/p&gt;" style="verticalAlign=top;align=left;overflow=fill;fontSize=12;fontFamily=Helvetica;html=1;rounded=0;shadow=0;comic=0;labelBackgroundColor=none;strokeWidth=1" parent="1" vertex="1">
          <mxGeometry x="800" y="700" width="274" height="176" as="geometry" />
        </mxCell>
        <mxCell id="f1sxtVWSb66M2AAOYYNP-5" style="edgeStyle=orthogonalEdgeStyle;rounded=0;orthogonalLoop=1;jettySize=auto;html=1;entryX=-0.001;entryY=0.534;entryDx=0;entryDy=0;entryPerimeter=0;endArrow=none;endFill=0;startArrow=diamond;startFill=0;" parent="1" source="jhM8vWiSoszHQmGIz2Cq-66" target="f1sxtVWSb66M2AAOYYNP-1" edge="1">
          <mxGeometry relative="1" as="geometry">
            <mxPoint x="695.8720000000003" y="256.35199999999986" as="sourcePoint" />
          </mxGeometry>
        </mxCell>
        <mxCell id="f1sxtVWSb66M2AAOYYNP-6" value="OldWorld" style="rounded=1;whiteSpace=wrap;html=1;" parent="1" vertex="1">
          <mxGeometry x="-325" y="3260" width="590" height="60" as="geometry" />
        </mxCell>
        <mxCell id="f1sxtVWSb66M2AAOYYNP-7" value="LoadPackage&lt;br&gt;加载NewWorld" style="rounded=1;whiteSpace=wrap;html=1;" parent="1" vertex="1">
          <mxGeometry x="-325" y="3320" width="260" height="60" as="geometry" />
        </mxCell>
        <mxCell id="f1sxtVWSb66M2AAOYYNP-8" value="ARecastMesh.Serialize" style="rounded=1;whiteSpace=wrap;html=1;" parent="1" vertex="1">
          <mxGeometry x="-325" y="3380" width="260" height="60" as="geometry" />
        </mxCell>
        <mxCell id="f1sxtVWSb66M2AAOYYNP-9" value="DestoryWrold&lt;br&gt;OldWorld销毁自己" style="rounded=1;whiteSpace=wrap;html=1;" parent="1" vertex="1">
          <mxGeometry x="-65" y="3320" width="260" height="60" as="geometry" />
        </mxCell>
        <mxCell id="f1sxtVWSb66M2AAOYYNP-10" value="CleanupWrold(NewWorld)&lt;br&gt;清理NewWorld" style="rounded=1;whiteSpace=wrap;html=1;" parent="1" vertex="1">
          <mxGeometry x="-65" y="3380" width="260" height="60" as="geometry" />
        </mxCell>
        <mxCell id="e_4y97-Xr0sPAChcjwbA-3" style="edgeStyle=orthogonalEdgeStyle;rounded=0;orthogonalLoop=1;jettySize=auto;html=1;dashed=1;dashPattern=8 8;" parent="1" source="e_4y97-Xr0sPAChcjwbA-1" target="f1sxtVWSb66M2AAOYYNP-6" edge="1">
          <mxGeometry relative="1" as="geometry" />
        </mxCell>
        <mxCell id="e_4y97-Xr0sPAChcjwbA-1" value="切场景时ARecastMesh的序列化" style="shape=note2;boundedLbl=1;whiteSpace=wrap;html=1;size=25;verticalAlign=top;align=center;fillColor=#3399FF;" parent="1" vertex="1">
          <mxGeometry x="-680" y="3260" width="210" height="60" as="geometry" />
        </mxCell>
        <mxCell id="e_4y97-Xr0sPAChcjwbA-2" value="体素化" style="shape=note2;boundedLbl=1;whiteSpace=wrap;html=1;size=25;verticalAlign=top;align=center;fillColor=#3399FF;" parent="1" vertex="1">
          <mxGeometry x="-680" y="3650" width="210" height="60" as="geometry" />
        </mxCell>
        <mxCell id="e_4y97-Xr0sPAChcjwbA-4" value="&lt;div style=&quot;&quot;&gt;&lt;div style=&quot;font-size: 9.8pt;&quot;&gt;&lt;font&gt;UKuroVoxelEditorCmd::&lt;span style=&quot;font-style: italic;&quot;&gt;BuildSceneVoxelDataCmd&lt;/span&gt;&lt;/font&gt;&lt;/div&gt;&lt;/div&gt;" style="rounded=1;whiteSpace=wrap;html=1;fontColor=default;fontFamily=Helvetica;strokeColor=default;labelBackgroundColor=default;" parent="1" vertex="1">
          <mxGeometry x="-320" y="3650" width="3930" height="60" as="geometry" />
        </mxCell>
        <mxCell id="e_4y97-Xr0sPAChcjwbA-5" value="&lt;div style=&quot;&quot;&gt;&lt;div style=&quot;font-size: 9.8pt;&quot;&gt;&lt;div style=&quot;&quot;&gt;&lt;div style=&quot;font-size: 9.8pt;&quot;&gt;GenerateVoxelPartitionActorsVolumeWithDataLayers&lt;/div&gt;&lt;/div&gt;&lt;/div&gt;&lt;/div&gt;" style="rounded=1;whiteSpace=wrap;html=1;fontColor=default;fontFamily=Helvetica;labelBackgroundColor=default;strokeColor=default;" parent="1" vertex="1">
          <mxGeometry x="-320" y="3710" width="3930" height="60" as="geometry" />
        </mxCell>
        <mxCell id="e_4y97-Xr0sPAChcjwbA-6" value="&lt;div style=&quot;&quot;&gt;&lt;div style=&quot;font-size: 9.8pt;&quot;&gt;SceneVoxelGenerator.&lt;span style=&quot;&quot;&gt;GeneratePrepare&lt;/span&gt;&lt;/div&gt;&lt;div style=&quot;font-size: 9.8pt;&quot;&gt;&lt;span style=&quot;&quot;&gt;准备工作&lt;/span&gt;&lt;/div&gt;&lt;/div&gt;" style="rounded=1;whiteSpace=wrap;html=1;fontColor=default;labelBackgroundColor=default;fontFamily=Helvetica;fontStyle=0;strokeColor=default;" parent="1" vertex="1">
          <mxGeometry x="-320" y="3770" width="1930" height="60" as="geometry" />
        </mxCell>
        <mxCell id="e_4y97-Xr0sPAChcjwbA-7" value="&lt;div style=&quot;&quot;&gt;&lt;div style=&quot;font-size: 9.8pt;&quot;&gt;&lt;div style=&quot;font-size: 9.8pt;&quot;&gt;Clear&lt;/div&gt;&lt;/div&gt;&lt;/div&gt;" style="rounded=1;whiteSpace=wrap;html=1;fontColor=default;labelBackgroundColor=default;fontFamily=Helvetica;fontStyle=0;strokeColor=default;" parent="1" vertex="1">
          <mxGeometry x="-320" y="3830" width="130" height="60" as="geometry" />
        </mxCell>
        <mxCell id="e_4y97-Xr0sPAChcjwbA-8" value="&lt;div style=&quot;&quot;&gt;&lt;div style=&quot;font-size: 9.8pt;&quot;&gt;&lt;div style=&quot;font-size: 9.8pt;&quot;&gt;&lt;div style=&quot;font-size: 9.8pt;&quot;&gt;&lt;span style=&quot;font-size: 9.8pt; white-space: normal;&quot;&gt;SetWorldLevelActive&lt;/span&gt;&lt;br&gt;&lt;/div&gt;&lt;div style=&quot;font-size: 9.8pt;&quot;&gt;&lt;span style=&quot;font-size: 9.8pt; white-space: normal;&quot;&gt;激活level&lt;/span&gt;&lt;/div&gt;&lt;/div&gt;&lt;/div&gt;&lt;/div&gt;" style="rounded=1;whiteSpace=wrap;html=1;fontColor=default;labelBackgroundColor=default;fontFamily=Helvetica;fontStyle=0;strokeColor=default;" parent="1" vertex="1">
          <mxGeometry x="-190" y="3830" width="150" height="60" as="geometry" />
        </mxCell>
        <mxCell id="e_4y97-Xr0sPAChcjwbA-9" value="&lt;div style=&quot;&quot;&gt;&lt;div style=&quot;font-size: 9.8pt;&quot;&gt;&lt;div style=&quot;font-size: 9.8pt;&quot;&gt;&lt;div style=&quot;font-size: 9.8pt;&quot;&gt;&lt;div style=&quot;&quot;&gt;&lt;div style=&quot;font-size: 9.8pt;&quot;&gt;CollectExsistingVoxelPartitionActors&lt;/div&gt;&lt;div style=&quot;font-size: 9.8pt;&quot;&gt;收集已经存在的PartitionActors&lt;/div&gt;&lt;/div&gt;&lt;/div&gt;&lt;/div&gt;&lt;/div&gt;&lt;/div&gt;" style="rounded=1;whiteSpace=wrap;html=1;fontColor=default;labelBackgroundColor=default;fontFamily=Helvetica;fontStyle=0;strokeColor=default;" parent="1" vertex="1">
          <mxGeometry x="-40" y="3830" width="360" height="60" as="geometry" />
        </mxCell>
        <mxCell id="e_4y97-Xr0sPAChcjwbA-10" value="&lt;div style=&quot;&quot;&gt;&lt;div style=&quot;font-size: 9.8pt;&quot;&gt;&lt;div style=&quot;font-size: 9.8pt;&quot;&gt;&lt;div style=&quot;font-size: 9.8pt;&quot;&gt;收集AKuroVoxelGlobalActor&lt;/div&gt;&lt;/div&gt;&lt;/div&gt;&lt;/div&gt;" style="rounded=1;whiteSpace=wrap;html=1;fontColor=default;labelBackgroundColor=default;fontFamily=Helvetica;fontStyle=0;strokeColor=default;" parent="1" vertex="1">
          <mxGeometry x="-35" y="3890" width="150" height="60" as="geometry" />
        </mxCell>
        <mxCell id="e_4y97-Xr0sPAChcjwbA-11" value="&lt;div style=&quot;&quot;&gt;&lt;div style=&quot;font-size: 9.8pt;&quot;&gt;&lt;div style=&quot;font-size: 9.8pt;&quot;&gt;&lt;div style=&quot;font-size: 9.8pt;&quot;&gt;收集AKuroVoxelPartitionActor&lt;/div&gt;&lt;/div&gt;&lt;/div&gt;&lt;/div&gt;" style="rounded=1;whiteSpace=wrap;html=1;fontColor=default;labelBackgroundColor=default;fontFamily=Helvetica;fontStyle=0;strokeColor=default;" parent="1" vertex="1">
          <mxGeometry x="115" y="3890" width="150" height="60" as="geometry" />
        </mxCell>
        <mxCell id="e_4y97-Xr0sPAChcjwbA-12" value="&lt;div style=&quot;&quot;&gt;&lt;div style=&quot;font-size: 9.8pt;&quot;&gt;&lt;div style=&quot;font-size: 9.8pt;&quot;&gt;&lt;div style=&quot;font-size: 9.8pt;&quot;&gt;&lt;div style=&quot;&quot;&gt;&lt;div style=&quot;font-size: 9.8pt;&quot;&gt;&lt;div style=&quot;font-size: 9.8pt;&quot;&gt;&lt;span style=&quot;font-size: 9.8pt; white-space: normal;&quot;&gt;ModifyActorsCollisionByDataLayers&lt;/span&gt;&lt;br&gt;&lt;/div&gt;&lt;div style=&quot;font-size: 9.8pt;&quot;&gt;&lt;span style=&quot;white-space: normal;&quot;&gt;修改Actor的碰撞信息&lt;/span&gt;&lt;/div&gt;&lt;/div&gt;&lt;/div&gt;&lt;/div&gt;&lt;/div&gt;&lt;/div&gt;&lt;/div&gt;" style="rounded=1;whiteSpace=wrap;html=1;fontColor=default;labelBackgroundColor=default;fontFamily=Helvetica;fontStyle=0;strokeColor=default;" parent="1" vertex="1">
          <mxGeometry x="320" y="3830" width="1230" height="60" as="geometry" />
        </mxCell>
        <mxCell id="e_4y97-Xr0sPAChcjwbA-13" value="&lt;div style=&quot;&quot;&gt;&lt;div style=&quot;font-size: 9.8pt;&quot;&gt;&lt;div style=&quot;font-size: 9.8pt;&quot;&gt;&lt;div style=&quot;font-size: 9.8pt;&quot;&gt;&lt;div style=&quot;&quot;&gt;&lt;div style=&quot;font-size: 9.8pt;&quot;&gt;&lt;div style=&quot;font-size: 9.8pt;&quot;&gt;&lt;div style=&quot;font-size: 9.8pt;&quot;&gt;&lt;div style=&quot;&quot;&gt;&lt;div style=&quot;font-size: 9.8pt;&quot;&gt;GetStaticMeshActorsByDataLayersAndMaterials&lt;/div&gt;&lt;/div&gt;&lt;/div&gt;&lt;div style=&quot;font-size: 9.8pt;&quot;&gt;&lt;span style=&quot;font-size: 9.8pt;&quot;&gt;收集特定材质的Actors，放入&lt;/span&gt;EnableCollisionActorsList&lt;/div&gt;&lt;/div&gt;&lt;/div&gt;&lt;/div&gt;&lt;/div&gt;&lt;/div&gt;&lt;/div&gt;&lt;/div&gt;" style="rounded=1;whiteSpace=wrap;html=1;fontColor=default;labelBackgroundColor=default;fontFamily=Helvetica;fontStyle=0;strokeColor=default;" parent="1" vertex="1">
          <mxGeometry x="320" y="3890" width="300" height="60" as="geometry" />
        </mxCell>
        <mxCell id="e_4y97-Xr0sPAChcjwbA-14" value="按DataLayer过滤" style="rounded=1;whiteSpace=wrap;html=1;fontColor=default;labelBackgroundColor=default;fontFamily=Helvetica;fontStyle=0;strokeColor=default;" parent="1" vertex="1">
          <mxGeometry x="330" y="3958" width="270" height="60" as="geometry" />
        </mxCell>
        <mxCell id="e_4y97-Xr0sPAChcjwbA-15" value="&lt;div style=&quot;&quot;&gt;&lt;div style=&quot;font-size: 9.8pt;&quot;&gt;&lt;div style=&quot;&quot;&gt;&lt;div style=&quot;font-size: 9.8pt;&quot;&gt;IsStaticMeshMaterial&lt;/div&gt;&lt;/div&gt;&lt;/div&gt;&lt;div style=&quot;font-size: 9.8pt;&quot;&gt;按材质过滤&lt;/div&gt;&lt;/div&gt;" style="rounded=1;whiteSpace=wrap;html=1;fontColor=default;labelBackgroundColor=default;fontFamily=Helvetica;fontStyle=0;strokeColor=default;" parent="1" vertex="1">
          <mxGeometry x="360" y="4018" width="200" height="60" as="geometry" />
        </mxCell>
        <mxCell id="RcDuIezb-Lo0XpTAMdit-1" value="&lt;div style=&quot;&quot;&gt;&lt;div style=&quot;font-size: 9.8pt;&quot;&gt;&lt;div style=&quot;&quot;&gt;&lt;div style=&quot;font-size: 9.8pt;&quot;&gt;&lt;span style=&quot;font-size: 9.8pt; white-space: normal;&quot;&gt;NavmeshGenerateAutomator::&lt;/span&gt;&lt;span style=&quot;font-size: 9.8pt; white-space: normal; font-weight: bold;&quot;&gt;QuickNavExportCmd&lt;/span&gt;&lt;br&gt;&lt;/div&gt;&lt;/div&gt;&lt;/div&gt;&lt;/div&gt;" style="rounded=1;whiteSpace=wrap;html=1;fontColor=default;labelBackgroundColor=default;fontFamily=Helvetica;fontStyle=0;strokeColor=default;" parent="1" vertex="1">
          <mxGeometry x="-310" y="4240" width="1130" height="60" as="geometry" />
        </mxCell>
        <mxCell id="RcDuIezb-Lo0XpTAMdit-2" value="&lt;div style=&quot;&quot;&gt;&lt;div style=&quot;font-size: 9.8pt;&quot;&gt;&lt;div style=&quot;&quot;&gt;&lt;div style=&quot;font-size: 9.8pt;&quot;&gt;&lt;div&gt;&lt;div style=&quot;font-size: 9.8pt;&quot;&gt;n.GEnableKuroVoxelization 1&lt;/div&gt;&lt;div style=&quot;font-size: 9.8pt;&quot;&gt;开启体素开关&lt;/div&gt;&lt;/div&gt;&lt;/div&gt;&lt;/div&gt;&lt;/div&gt;&lt;/div&gt;" style="rounded=1;whiteSpace=wrap;html=1;fontColor=default;labelBackgroundColor=default;fontFamily=Helvetica;fontStyle=0;strokeColor=default;" parent="1" vertex="1">
          <mxGeometry x="-310" y="4300" width="460" height="60" as="geometry" />
        </mxCell>
        <mxCell id="RcDuIezb-Lo0XpTAMdit-3" value="&lt;div style=&quot;&quot;&gt;&lt;div style=&quot;font-size: 9.8pt;&quot;&gt;&lt;div style=&quot;&quot;&gt;&lt;div style=&quot;font-size: 9.8pt;&quot;&gt;&lt;div&gt;&lt;div style=&quot;font-size: 9.8pt;&quot;&gt;遍历每个Map&lt;/div&gt;&lt;/div&gt;&lt;/div&gt;&lt;/div&gt;&lt;/div&gt;&lt;/div&gt;" style="rounded=1;whiteSpace=wrap;html=1;fontColor=default;labelBackgroundColor=default;fontFamily=Helvetica;fontStyle=0;strokeColor=default;" parent="1" vertex="1">
          <mxGeometry x="450" y="4300" width="670" height="60" as="geometry" />
        </mxCell>
        <mxCell id="RcDuIezb-Lo0XpTAMdit-4" value="&lt;div style=&quot;&quot;&gt;&lt;div style=&quot;font-size: 9.8pt;&quot;&gt;&lt;div style=&quot;&quot;&gt;&lt;div style=&quot;font-size: 9.8pt;&quot;&gt;&lt;div&gt;&lt;div style=&quot;font-size: 9.8pt;&quot;&gt;遍历每个Map&lt;/div&gt;&lt;/div&gt;&lt;/div&gt;&lt;/div&gt;&lt;/div&gt;&lt;/div&gt;" style="rounded=1;whiteSpace=wrap;html=1;fontColor=default;labelBackgroundColor=default;fontFamily=Helvetica;fontStyle=0;strokeColor=default;" parent="1" vertex="1">
          <mxGeometry x="450" y="4360" width="300" height="60" as="geometry" />
        </mxCell>
        <mxCell id="RcDuIezb-Lo0XpTAMdit-5" value="&lt;div style=&quot;&quot;&gt;&lt;div style=&quot;font-size: 9.8pt;&quot;&gt;&lt;div style=&quot;&quot;&gt;&lt;div style=&quot;font-size: 9.8pt;&quot;&gt;&lt;div style=&quot;font-size: 9.8pt;&quot;&gt;获得Excel中DataLayer的信息&lt;/div&gt;&lt;/div&gt;&lt;/div&gt;&lt;/div&gt;&lt;/div&gt;" style="rounded=1;whiteSpace=wrap;html=1;fontColor=default;labelBackgroundColor=default;fontFamily=Helvetica;fontStyle=0;strokeColor=default;" parent="1" vertex="1">
          <mxGeometry x="150" y="4300" width="300" height="60" as="geometry" />
        </mxCell>
        <mxCell id="jhM8vWiSoszHQmGIz2Cq-1" value="一键导出所有寻路、体素相关" style="shape=note2;boundedLbl=1;whiteSpace=wrap;html=1;size=25;verticalAlign=top;align=center;fillColor=#3399FF;" vertex="1" parent="1">
          <mxGeometry x="-720" y="4240" width="210" height="60" as="geometry" />
        </mxCell>
        <mxCell id="jhM8vWiSoszHQmGIz2Cq-2" value="&lt;div style=&quot;&quot;&gt;&lt;div style=&quot;font-size: 9.8pt;&quot;&gt;UStaticMeshComponent.&lt;/div&gt;&lt;div style=&quot;font-size: 9.8pt;&quot;&gt;StatcMesh.RenderData&lt;/div&gt;&lt;div style=&quot;font-size: 9.8pt;&quot;&gt;.LODResources[0].&lt;/div&gt;&lt;div style=&quot;font-size: 9.8pt;&quot;&gt;Sections[0].MaterialIndex&lt;/div&gt;&lt;div style=&quot;font-size: 9.8pt;&quot;&gt;对应的MeterialName是不是对应材质&lt;/div&gt;&lt;/div&gt;" style="rounded=1;whiteSpace=wrap;html=1;fontColor=default;labelBackgroundColor=default;fontFamily=Helvetica;fontStyle=0;strokeColor=default;" vertex="1" parent="1">
          <mxGeometry x="360" y="4078" width="200" height="120" as="geometry" />
        </mxCell>
        <mxCell id="jhM8vWiSoszHQmGIz2Cq-3" value="&lt;div style=&quot;&quot;&gt;&lt;div style=&quot;font-size: 9.8pt;&quot;&gt;AInstancedFoliageActor&lt;/div&gt;&lt;div style=&quot;font-size: 9.8pt;&quot;&gt;植物actor也加入到&lt;/div&gt;&lt;div style=&quot;font-size: 9.8pt;&quot;&gt;EnableCollisionActorsList&lt;/div&gt;&lt;/div&gt;" style="rounded=1;whiteSpace=wrap;html=1;fontColor=default;labelBackgroundColor=default;fontFamily=Helvetica;fontStyle=0;strokeColor=default;" vertex="1" parent="1">
          <mxGeometry x="620" y="3890" width="190" height="90" as="geometry" />
        </mxCell>
        <mxCell id="jhM8vWiSoszHQmGIz2Cq-4" value="&lt;div style=&quot;&quot;&gt;&lt;div style=&quot;font-size: 9.8pt;&quot;&gt;收集DisableCollisionActors&lt;/div&gt;&lt;/div&gt;" style="rounded=1;whiteSpace=wrap;html=1;fontColor=default;labelBackgroundColor=default;fontFamily=Helvetica;fontStyle=0;strokeColor=default;" vertex="1" parent="1">
          <mxGeometry x="810" y="3890" width="190" height="60" as="geometry" />
        </mxCell>
        <mxCell id="jhM8vWiSoszHQmGIz2Cq-5" value="&lt;div style=&quot;&quot;&gt;&lt;div style=&quot;font-size: 9.8pt;&quot;&gt;&lt;span style=&quot;font-size: 9.8pt; white-space: normal;&quot;&gt;把EnableCollisionActorsList&lt;/span&gt;&lt;br&gt;&lt;/div&gt;&lt;div style=&quot;font-size: 9.8pt;&quot;&gt;&lt;span style=&quot;font-size: 9.8pt; white-space: normal;&quot;&gt;设置为物理碰撞，并记录&lt;/span&gt;&lt;/div&gt;&lt;/div&gt;" style="rounded=1;whiteSpace=wrap;html=1;fontColor=default;labelBackgroundColor=default;fontFamily=Helvetica;fontStyle=0;strokeColor=default;" vertex="1" parent="1">
          <mxGeometry x="1000" y="3890" width="190" height="60" as="geometry" />
        </mxCell>
        <mxCell id="jhM8vWiSoszHQmGIz2Cq-6" value="&lt;div style=&quot;&quot;&gt;&lt;div style=&quot;font-size: 9.8pt;&quot;&gt;把DisableCollisionActors&lt;/div&gt;&lt;div style=&quot;font-size: 9.8pt;&quot;&gt;设置为非物理碰撞，并记录&lt;/div&gt;&lt;/div&gt;" style="rounded=1;whiteSpace=wrap;html=1;fontColor=default;labelBackgroundColor=default;fontFamily=Helvetica;fontStyle=0;strokeColor=default;" vertex="1" parent="1">
          <mxGeometry x="1190" y="3890" width="190" height="60" as="geometry" />
        </mxCell>
        <mxCell id="jhM8vWiSoszHQmGIz2Cq-7" value="&lt;div style=&quot;&quot;&gt;&lt;div style=&quot;font-size: 9.8pt;&quot;&gt;&lt;div&gt;&lt;div style=&quot;font-size: 9.8pt;&quot;&gt;FNavigationSystem::Build&lt;/div&gt;&lt;/div&gt;&lt;/div&gt;&lt;/div&gt;" style="rounded=1;whiteSpace=wrap;html=1;fontColor=default;labelBackgroundColor=default;fontFamily=Helvetica;fontStyle=0;strokeColor=default;" vertex="1" parent="1">
          <mxGeometry x="1380" y="3890" width="160" height="60" as="geometry" />
        </mxCell>
        <mxCell id="jhM8vWiSoszHQmGIz2Cq-8" value="&lt;div style=&quot;&quot;&gt;&lt;div style=&quot;font-size: 9.8pt;&quot;&gt;&lt;div style=&quot;&quot;&gt;&lt;div style=&quot;font-size: 9.8pt;&quot;&gt;UKuroVoxelEditorCmd::BuildSceneVoxelData&lt;/div&gt;&lt;/div&gt;&lt;/div&gt;&lt;/div&gt;" style="rounded=1;whiteSpace=wrap;html=1;fontColor=default;labelBackgroundColor=default;fontFamily=Helvetica;fontStyle=0;strokeColor=default;" vertex="1" parent="1">
          <mxGeometry x="1610" y="3770" width="1930" height="60" as="geometry" />
        </mxCell>
        <mxCell id="jhM8vWiSoszHQmGIz2Cq-9" value="&lt;div style=&quot;&quot;&gt;&lt;div style=&quot;font-size: 9.8pt;&quot;&gt;&lt;div style=&quot;&quot;&gt;&lt;div style=&quot;font-size: 9.8pt;&quot;&gt;&lt;div&gt;&lt;div style=&quot;font-size: 9.8pt;&quot;&gt;Generator-&amp;gt;BeginBuild&lt;/div&gt;&lt;/div&gt;&lt;/div&gt;&lt;/div&gt;&lt;/div&gt;&lt;/div&gt;" style="rounded=1;whiteSpace=wrap;html=1;fontColor=default;labelBackgroundColor=default;fontFamily=Helvetica;fontStyle=0;strokeColor=default;" vertex="1" parent="1">
          <mxGeometry x="1610" y="3830" width="1930" height="60" as="geometry" />
        </mxCell>
        <mxCell id="jhM8vWiSoszHQmGIz2Cq-10" value="&lt;div style=&quot;&quot;&gt;&lt;div style=&quot;font-size: 9.8pt;&quot;&gt;&lt;div style=&quot;&quot;&gt;&lt;div style=&quot;font-size: 9.8pt;&quot;&gt;&lt;div&gt;&lt;div style=&quot;font-size: 9.8pt;&quot;&gt;Init&lt;/div&gt;&lt;/div&gt;&lt;/div&gt;&lt;/div&gt;&lt;/div&gt;&lt;/div&gt;" style="rounded=1;whiteSpace=wrap;html=1;fontColor=default;labelBackgroundColor=default;fontFamily=Helvetica;fontStyle=0;strokeColor=default;" vertex="1" parent="1">
          <mxGeometry x="1610" y="3890" width="400" height="60" as="geometry" />
        </mxCell>
        <mxCell id="jhM8vWiSoszHQmGIz2Cq-11" value="&lt;div style=&quot;&quot;&gt;&lt;div style=&quot;font-size: 9.8pt;&quot;&gt;&lt;div style=&quot;&quot;&gt;&lt;div style=&quot;font-size: 9.8pt;&quot;&gt;&lt;div style=&quot;font-size: 9.8pt;&quot;&gt;&lt;div&gt;&lt;div style=&quot;font-size: 9.8pt;&quot;&gt;PrepareBuildInfos&lt;/div&gt;&lt;/div&gt;&lt;/div&gt;&lt;/div&gt;&lt;/div&gt;&lt;/div&gt;&lt;/div&gt;" style="rounded=1;whiteSpace=wrap;html=1;fontColor=default;labelBackgroundColor=default;fontFamily=Helvetica;fontStyle=0;strokeColor=default;" vertex="1" parent="1">
          <mxGeometry x="1610" y="3950" width="400" height="60" as="geometry" />
        </mxCell>
        <mxCell id="jhM8vWiSoszHQmGIz2Cq-12" value="&lt;div style=&quot;&quot;&gt;&lt;div style=&quot;font-size: 9.8pt;&quot;&gt;&lt;div style=&quot;&quot;&gt;&lt;div style=&quot;font-size: 9.8pt;&quot;&gt;&lt;div style=&quot;font-size: 9.8pt;&quot;&gt;&lt;div style=&quot;font-size: 9.8pt;&quot;&gt;&lt;div style=&quot;font-size: 9.8pt;&quot;&gt;FillMaterialNameAudioIDMap&lt;/div&gt;&lt;div style=&quot;font-size: 9.8pt;&quot;&gt;材质名 To 材质id&lt;/div&gt;&lt;/div&gt;&lt;/div&gt;&lt;/div&gt;&lt;/div&gt;&lt;/div&gt;&lt;/div&gt;" style="rounded=1;whiteSpace=wrap;html=1;fontColor=default;labelBackgroundColor=default;fontFamily=Helvetica;fontStyle=0;strokeColor=default;" vertex="1" parent="1">
          <mxGeometry x="1610" y="4010" width="180" height="60" as="geometry" />
        </mxCell>
        <mxCell id="jhM8vWiSoszHQmGIz2Cq-13" value="&lt;div style=&quot;&quot;&gt;&lt;div style=&quot;font-size: 9.8pt;&quot;&gt;&lt;div style=&quot;&quot;&gt;&lt;div style=&quot;font-size: 9.8pt;&quot;&gt;&lt;div style=&quot;font-size: 9.8pt;&quot;&gt;&lt;div style=&quot;font-size: 9.8pt;&quot;&gt;&lt;div style=&quot;font-size: 9.8pt;&quot;&gt;&lt;div&gt;&lt;div style=&quot;font-size: 9.8pt;&quot;&gt;FillMaterialID2PriorityMap&lt;/div&gt;&lt;div style=&quot;font-size: 9.8pt;&quot;&gt;材质id To 优先级（体素合并时用）&lt;/div&gt;&lt;/div&gt;&lt;/div&gt;&lt;/div&gt;&lt;/div&gt;&lt;/div&gt;&lt;/div&gt;&lt;/div&gt;&lt;/div&gt;" style="rounded=1;whiteSpace=wrap;html=1;fontColor=default;labelBackgroundColor=default;fontFamily=Helvetica;fontStyle=0;strokeColor=default;" vertex="1" parent="1">
          <mxGeometry x="1790" y="4010" width="220" height="60" as="geometry" />
        </mxCell>
        <mxCell id="jhM8vWiSoszHQmGIz2Cq-15" value="&lt;div style=&quot;&quot;&gt;&lt;div style=&quot;font-size: 9.8pt;&quot;&gt;&lt;div style=&quot;&quot;&gt;&lt;div style=&quot;font-size: 9.8pt;&quot;&gt;&lt;div style=&quot;font-size: 9.8pt;&quot;&gt;FKuroVoxelGenerator::Build&lt;/div&gt;&lt;/div&gt;&lt;/div&gt;&lt;/div&gt;&lt;/div&gt;" style="rounded=1;whiteSpace=wrap;html=1;fontColor=default;labelBackgroundColor=default;fontFamily=Helvetica;fontStyle=0;strokeColor=default;" vertex="1" parent="1">
          <mxGeometry x="2010" y="3890" width="1260" height="60" as="geometry" />
        </mxCell>
        <mxCell id="jhM8vWiSoszHQmGIz2Cq-16" value="&lt;div style=&quot;&quot;&gt;&lt;div style=&quot;font-size: 9.8pt;&quot;&gt;&lt;div style=&quot;&quot;&gt;&lt;div style=&quot;font-size: 9.8pt;&quot;&gt;&lt;div style=&quot;font-size: 9.8pt;&quot;&gt;&lt;div style=&quot;font-size: 9.8pt;&quot;&gt;&lt;div style=&quot;font-size: 9.8pt;&quot;&gt;FRecastNavMeshCachedData::Construct&lt;/div&gt;&lt;div style=&quot;font-size: 9.8pt;&quot;&gt;赋值area信息（AreaId、Flags）&lt;/div&gt;&lt;/div&gt;&lt;/div&gt;&lt;/div&gt;&lt;/div&gt;&lt;/div&gt;&lt;/div&gt;" style="rounded=1;whiteSpace=wrap;html=1;fontColor=default;labelBackgroundColor=default;fontFamily=Helvetica;fontStyle=0;strokeColor=default;" vertex="1" parent="1">
          <mxGeometry x="2020" y="4010" width="250" height="60" as="geometry" />
        </mxCell>
        <mxCell id="jhM8vWiSoszHQmGIz2Cq-17" value="&lt;div style=&quot;&quot;&gt;&lt;div style=&quot;font-size: 9.8pt;&quot;&gt;&lt;div style=&quot;&quot;&gt;&lt;div style=&quot;font-size: 9.8pt;&quot;&gt;&lt;div style=&quot;font-size: 9.8pt;&quot;&gt;&lt;div style=&quot;font-size: 9.8pt;&quot;&gt;&lt;div style=&quot;font-size: 9.8pt;&quot;&gt;&lt;div style=&quot;font-size: 9.8pt;&quot;&gt;&lt;span style=&quot;font-size: 9.8pt; white-space: normal;&quot;&gt;UpdateInclusionBounds&lt;/span&gt;&lt;br&gt;&lt;/div&gt;&lt;div style=&quot;font-size: 9.8pt;&quot;&gt;&lt;span style=&quot;font-size: 9.8pt; white-space: normal;&quot;&gt;更新范围&lt;/span&gt;&lt;/div&gt;&lt;/div&gt;&lt;/div&gt;&lt;/div&gt;&lt;/div&gt;&lt;/div&gt;&lt;/div&gt;&lt;/div&gt;" style="rounded=1;whiteSpace=wrap;html=1;fontColor=default;labelBackgroundColor=default;fontFamily=Helvetica;fontStyle=0;strokeColor=default;" vertex="1" parent="1">
          <mxGeometry x="2272.5" y="4010" width="330" height="60" as="geometry" />
        </mxCell>
        <mxCell id="jhM8vWiSoszHQmGIz2Cq-19" value="&lt;div style=&quot;&quot;&gt;&lt;div style=&quot;font-size: 9.8pt;&quot;&gt;&lt;div style=&quot;&quot;&gt;&lt;div style=&quot;font-size: 9.8pt;&quot;&gt;&lt;div style=&quot;font-size: 9.8pt;&quot;&gt;&lt;div style=&quot;font-size: 9.8pt;&quot;&gt;&lt;div style=&quot;font-size: 9.8pt;&quot;&gt;&lt;div style=&quot;font-size: 9.8pt;&quot;&gt;&lt;div style=&quot;font-size: 9.8pt;&quot;&gt;FRecastNavMeshGenerator::UpdateNavigationBounds&lt;/div&gt;&lt;div style=&quot;font-size: 9.8pt;&quot;&gt;通过RecastNavMeshGenerator更新VoxelGenerator的范围&lt;/div&gt;&lt;/div&gt;&lt;/div&gt;&lt;/div&gt;&lt;/div&gt;&lt;/div&gt;&lt;/div&gt;&lt;/div&gt;&lt;/div&gt;" style="rounded=1;whiteSpace=wrap;html=1;fontColor=default;labelBackgroundColor=default;fontFamily=Helvetica;fontStyle=0;strokeColor=default;" vertex="1" parent="1">
          <mxGeometry x="2275" y="4070" width="325" height="60" as="geometry" />
        </mxCell>
        <mxCell id="jhM8vWiSoszHQmGIz2Cq-20" value="&lt;div style=&quot;&quot;&gt;&lt;div style=&quot;font-size: 9.8pt;&quot;&gt;&lt;div style=&quot;&quot;&gt;&lt;div style=&quot;font-size: 9.8pt;&quot;&gt;&lt;div style=&quot;font-size: 9.8pt;&quot;&gt;&lt;div style=&quot;&quot;&gt;&lt;div style=&quot;font-size: 9.8pt;&quot;&gt;FKuroVoxelGenerator::Init&lt;/div&gt;&lt;/div&gt;&lt;/div&gt;&lt;/div&gt;&lt;/div&gt;&lt;/div&gt;&lt;/div&gt;" style="rounded=1;whiteSpace=wrap;html=1;fontColor=default;labelBackgroundColor=default;fontFamily=Helvetica;fontStyle=0;strokeColor=default;" vertex="1" parent="1">
          <mxGeometry x="2012.5" y="3950" width="590" height="60" as="geometry" />
        </mxCell>
        <mxCell id="jhM8vWiSoszHQmGIz2Cq-21" value="&lt;div style=&quot;&quot;&gt;&lt;div style=&quot;font-size: 9.8pt;&quot;&gt;&lt;div style=&quot;&quot;&gt;&lt;div style=&quot;font-size: 9.8pt;&quot;&gt;&lt;div style=&quot;font-size: 9.8pt;&quot;&gt;&lt;div style=&quot;&quot;&gt;&lt;div style=&quot;font-size: 9.8pt;&quot;&gt;&lt;div&gt;&lt;div style=&quot;font-size: 9.8pt;&quot;&gt;UNavigationSystemV1.ProcessRegistrationCandidates&lt;/div&gt;&lt;/div&gt;&lt;/div&gt;&lt;/div&gt;&lt;/div&gt;&lt;/div&gt;&lt;/div&gt;&lt;/div&gt;&lt;/div&gt;" style="rounded=1;whiteSpace=wrap;html=1;labelBackgroundColor=default;fontFamily=Helvetica;fontStyle=0;strokeColor=#007FFF;fillColor=default;fontColor=default;" vertex="1" parent="1">
          <mxGeometry x="2602.5" y="3950" width="357.5" height="60" as="geometry" />
        </mxCell>
        <mxCell id="jhM8vWiSoszHQmGIz2Cq-22" value="&lt;div style=&quot;&quot;&gt;&lt;div style=&quot;font-size: 9.8pt;&quot;&gt;&lt;div style=&quot;&quot;&gt;&lt;div style=&quot;font-size: 9.8pt;&quot;&gt;&lt;div style=&quot;font-size: 9.8pt;&quot;&gt;&lt;div style=&quot;&quot;&gt;&lt;div style=&quot;font-size: 9.8pt;&quot;&gt;&lt;div&gt;&lt;div style=&quot;font-size: 9.8pt;&quot;&gt;UNavigationSystemV1.ProcessRegistrationCandidates&lt;/div&gt;&lt;/div&gt;&lt;/div&gt;&lt;/div&gt;&lt;/div&gt;&lt;/div&gt;&lt;/div&gt;&lt;/div&gt;&lt;/div&gt;" style="rounded=1;whiteSpace=wrap;html=1;labelBackgroundColor=none;fontFamily=Helvetica;fontStyle=0;strokeColor=#007FFF;fillColor=default;fontColor=default;labelBorderColor=none;" vertex="1" parent="1">
          <mxGeometry x="4270" y="3980" width="690" height="60" as="geometry" />
        </mxCell>
        <mxCell id="jhM8vWiSoszHQmGIz2Cq-23" value="&lt;div style=&quot;&quot;&gt;&lt;div style=&quot;font-size: 9.8pt;&quot;&gt;&lt;div style=&quot;&quot;&gt;&lt;div style=&quot;font-size: 9.8pt;&quot;&gt;&lt;div style=&quot;font-size: 9.8pt;&quot;&gt;&lt;div style=&quot;&quot;&gt;&lt;div style=&quot;font-size: 9.8pt;&quot;&gt;&lt;div style=&quot;font-size: 9.8pt;&quot;&gt;&lt;div style=&quot;&quot;&gt;&lt;div style=&quot;font-size: 9.8pt;&quot;&gt;RegisterNavData&lt;/div&gt;&lt;div style=&quot;font-size: 9.8pt;&quot;&gt;把NavDataRegistrationQueue注册到&lt;/div&gt;&lt;/div&gt;&lt;/div&gt;&lt;/div&gt;&lt;/div&gt;&lt;/div&gt;&lt;/div&gt;&lt;/div&gt;&lt;/div&gt;&lt;/div&gt;" style="rounded=1;whiteSpace=wrap;html=1;labelBackgroundColor=none;fontFamily=Helvetica;fontStyle=0;strokeColor=#007FFF;fillColor=default;fontColor=default;labelBorderColor=none;" vertex="1" parent="1">
          <mxGeometry x="4270" y="4040" width="690" height="60" as="geometry" />
        </mxCell>
        <mxCell id="jhM8vWiSoszHQmGIz2Cq-24" value="把NavDataRegistrationQueue中的ANavigationData&lt;span style=&quot;&quot;&gt;注册到&lt;/span&gt;" style="shape=note;whiteSpace=wrap;html=1;backgroundOutline=1;darkOpacity=0.05;fontFamily=Helvetica;fontColor=default;labelBackgroundColor=none;labelBorderColor=none;strokeColor=#007FFF;fillColor=default;" vertex="1" parent="1">
          <mxGeometry x="4270" y="3880" width="250" height="100" as="geometry" />
        </mxCell>
        <mxCell id="jhM8vWiSoszHQmGIz2Cq-25" value="&lt;div style=&quot;&quot;&gt;&lt;div style=&quot;font-size: 9.8pt;&quot;&gt;&lt;div style=&quot;&quot;&gt;&lt;div style=&quot;font-size: 9.8pt;&quot;&gt;&lt;div style=&quot;font-size: 9.8pt;&quot;&gt;&lt;div style=&quot;&quot;&gt;&lt;div style=&quot;font-size: 9.8pt;&quot;&gt;&lt;div style=&quot;font-size: 9.8pt;&quot;&gt;&lt;div style=&quot;&quot;&gt;&lt;div style=&quot;font-size: 9.8pt;&quot;&gt;如果NavCconfig有问题，改NavData设置基础信息&lt;/div&gt;&lt;/div&gt;&lt;/div&gt;&lt;/div&gt;&lt;/div&gt;&lt;/div&gt;&lt;/div&gt;&lt;/div&gt;&lt;/div&gt;&lt;/div&gt;" style="rounded=1;whiteSpace=wrap;html=1;labelBackgroundColor=none;fontFamily=Helvetica;fontStyle=0;strokeColor=#007FFF;fillColor=default;fontColor=default;labelBorderColor=none;" vertex="1" parent="1">
          <mxGeometry x="4270" y="4100" width="690" height="60" as="geometry" />
        </mxCell>
        <mxCell id="jhM8vWiSoszHQmGIz2Cq-26" value="&lt;div style=&quot;&quot;&gt;&lt;div style=&quot;font-size: 9.8pt;&quot;&gt;&lt;div style=&quot;&quot;&gt;&lt;div style=&quot;font-size: 9.8pt;&quot;&gt;&lt;div style=&quot;font-size: 9.8pt;&quot;&gt;&lt;div style=&quot;&quot;&gt;&lt;div style=&quot;font-size: 9.8pt;&quot;&gt;&lt;div style=&quot;font-size: 9.8pt;&quot;&gt;&lt;div style=&quot;&quot;&gt;&lt;div style=&quot;font-size: 9.8pt;&quot;&gt;&lt;div&gt;&lt;div style=&quot;font-size: 9.8pt;&quot;&gt;NavData-&amp;gt;&lt;span style=&quot;font-weight: bold;&quot;&gt;SetConfig&lt;/span&gt;&lt;/div&gt;&lt;/div&gt;&lt;/div&gt;&lt;/div&gt;&lt;/div&gt;&lt;/div&gt;&lt;/div&gt;&lt;/div&gt;&lt;/div&gt;&lt;/div&gt;&lt;/div&gt;&lt;/div&gt;" style="rounded=1;whiteSpace=wrap;html=1;labelBackgroundColor=none;fontFamily=Helvetica;fontStyle=0;strokeColor=#007FFF;fillColor=default;fontColor=default;labelBorderColor=none;" vertex="1" parent="1">
          <mxGeometry x="4270" y="4160" width="160" height="60" as="geometry" />
        </mxCell>
        <mxCell id="jhM8vWiSoszHQmGIz2Cq-27" value="&lt;div style=&quot;&quot;&gt;&lt;div style=&quot;font-size: 9.8pt;&quot;&gt;&lt;div style=&quot;&quot;&gt;&lt;div style=&quot;font-size: 9.8pt;&quot;&gt;&lt;div style=&quot;font-size: 9.8pt;&quot;&gt;&lt;div style=&quot;&quot;&gt;&lt;div style=&quot;font-size: 9.8pt;&quot;&gt;&lt;div style=&quot;font-size: 9.8pt;&quot;&gt;&lt;div style=&quot;&quot;&gt;&lt;div style=&quot;font-size: 9.8pt;&quot;&gt;&lt;div style=&quot;font-size: 9.8pt;&quot;&gt;&lt;div&gt;&lt;div style=&quot;font-size: 9.8pt;&quot;&gt;NavData-&amp;gt;&lt;span style=&quot;font-weight: bold;&quot;&gt;ProcessNavAreas&lt;/span&gt;&lt;/div&gt;&lt;/div&gt;&lt;/div&gt;&lt;/div&gt;&lt;/div&gt;&lt;/div&gt;&lt;/div&gt;&lt;/div&gt;&lt;/div&gt;&lt;/div&gt;&lt;/div&gt;&lt;/div&gt;&lt;/div&gt;" style="rounded=1;whiteSpace=wrap;html=1;labelBackgroundColor=none;fontFamily=Helvetica;fontStyle=0;strokeColor=#007FFF;fillColor=default;fontColor=default;labelBorderColor=none;" vertex="1" parent="1">
          <mxGeometry x="4430" y="4160" width="530" height="60" as="geometry" />
        </mxCell>
        <mxCell id="jhM8vWiSoszHQmGIz2Cq-28" value="&lt;div style=&quot;&quot;&gt;&lt;div style=&quot;font-size: 9.8pt;&quot;&gt;&lt;div style=&quot;&quot;&gt;&lt;div style=&quot;font-size: 9.8pt;&quot;&gt;&lt;div style=&quot;font-size: 9.8pt;&quot;&gt;&lt;div style=&quot;&quot;&gt;&lt;div style=&quot;font-size: 9.8pt;&quot;&gt;&lt;div style=&quot;font-size: 9.8pt;&quot;&gt;&lt;div style=&quot;&quot;&gt;&lt;div style=&quot;font-size: 9.8pt;&quot;&gt;&lt;div style=&quot;font-size: 9.8pt;&quot;&gt;&lt;div style=&quot;font-size: 9.8pt;&quot;&gt;&lt;div style=&quot;font-size: 9.8pt;&quot;&gt;OnAreaCostChanged&lt;/div&gt;&lt;div style=&quot;font-size: 9.8pt;&quot;&gt;按照Area的cost重新排序&lt;/div&gt;&lt;/div&gt;&lt;/div&gt;&lt;/div&gt;&lt;/div&gt;&lt;/div&gt;&lt;/div&gt;&lt;/div&gt;&lt;/div&gt;&lt;/div&gt;&lt;/div&gt;&lt;/div&gt;&lt;/div&gt;" style="rounded=1;whiteSpace=wrap;html=1;labelBackgroundColor=none;fontFamily=Helvetica;fontStyle=0;strokeColor=#007FFF;fillColor=default;fontColor=default;labelBorderColor=none;" vertex="1" parent="1">
          <mxGeometry x="4665" y="4280" width="250" height="60" as="geometry" />
        </mxCell>
        <mxCell id="jhM8vWiSoszHQmGIz2Cq-29" value="&lt;div style=&quot;&quot;&gt;&lt;div style=&quot;font-size: 9.8pt;&quot;&gt;&lt;div style=&quot;&quot;&gt;&lt;div style=&quot;font-size: 9.8pt;&quot;&gt;&lt;div style=&quot;font-size: 9.8pt;&quot;&gt;&lt;div style=&quot;&quot;&gt;&lt;div style=&quot;font-size: 9.8pt;&quot;&gt;&lt;div style=&quot;font-size: 9.8pt;&quot;&gt;&lt;div style=&quot;&quot;&gt;&lt;div style=&quot;font-size: 9.8pt;&quot;&gt;&lt;div style=&quot;font-size: 9.8pt;&quot;&gt;&lt;div style=&quot;font-size: 9.8pt;&quot;&gt;&lt;div style=&quot;font-size: 9.8pt;&quot;&gt;&lt;div&gt;&lt;div style=&quot;font-size: 9.8pt;&quot;&gt;OnNavAreaAdded&lt;/div&gt;&lt;/div&gt;&lt;/div&gt;&lt;/div&gt;&lt;/div&gt;&lt;/div&gt;&lt;/div&gt;&lt;/div&gt;&lt;/div&gt;&lt;/div&gt;&lt;/div&gt;&lt;/div&gt;&lt;/div&gt;&lt;/div&gt;&lt;/div&gt;" style="rounded=1;whiteSpace=wrap;html=1;labelBackgroundColor=none;fontFamily=Helvetica;fontStyle=0;strokeColor=#007FFF;fillColor=default;fontColor=default;labelBorderColor=none;" vertex="1" parent="1">
          <mxGeometry x="4460" y="4220" width="180" height="60" as="geometry" />
        </mxCell>
        <mxCell id="jhM8vWiSoszHQmGIz2Cq-30" value="&lt;div style=&quot;&quot;&gt;&lt;div style=&quot;font-size: 9.8pt;&quot;&gt;&lt;div style=&quot;&quot;&gt;&lt;div style=&quot;font-size: 9.8pt;&quot;&gt;&lt;div style=&quot;font-size: 9.8pt;&quot;&gt;&lt;div style=&quot;&quot;&gt;&lt;div style=&quot;font-size: 9.8pt;&quot;&gt;&lt;div style=&quot;font-size: 9.8pt;&quot;&gt;&lt;div style=&quot;&quot;&gt;&lt;div style=&quot;font-size: 9.8pt;&quot;&gt;&lt;div style=&quot;font-size: 9.8pt;&quot;&gt;&lt;div style=&quot;font-size: 9.8pt;&quot;&gt;&lt;div style=&quot;font-size: 9.8pt;&quot;&gt;&lt;div style=&quot;font-size: 9.8pt;&quot;&gt;&lt;div&gt;&lt;div style=&quot;font-size: 9.8pt;&quot;&gt;OnNavAreaChanged&lt;/div&gt;&lt;/div&gt;&lt;/div&gt;&lt;/div&gt;&lt;/div&gt;&lt;/div&gt;&lt;/div&gt;&lt;/div&gt;&lt;/div&gt;&lt;/div&gt;&lt;/div&gt;&lt;/div&gt;&lt;/div&gt;&lt;/div&gt;&lt;/div&gt;&lt;/div&gt;" style="rounded=1;whiteSpace=wrap;html=1;labelBackgroundColor=none;fontFamily=Helvetica;fontStyle=0;strokeColor=#007FFF;fillColor=default;fontColor=default;labelBorderColor=none;" vertex="1" parent="1">
          <mxGeometry x="4640" y="4220" width="300" height="60" as="geometry" />
        </mxCell>
        <mxCell id="jhM8vWiSoszHQmGIz2Cq-34" value="&lt;div style=&quot;&quot;&gt;&lt;div style=&quot;font-size: 9.8pt;&quot;&gt;UNavAreaBase&lt;/div&gt;&lt;/div&gt;" style="swimlane;fontStyle=1;align=center;verticalAlign=top;childLayout=stackLayout;horizontal=1;startSize=26;horizontalStack=0;resizeParent=1;resizeParentMax=0;resizeLast=0;collapsible=1;marginBottom=0;whiteSpace=wrap;html=1;fontFamily=Helvetica;fontColor=default;labelBackgroundColor=default;" vertex="1" parent="1">
          <mxGeometry x="1930" y="1580" width="160" height="86" as="geometry" />
        </mxCell>
        <mxCell id="jhM8vWiSoszHQmGIz2Cq-35" value="+ field: type" style="text;strokeColor=none;fillColor=none;align=left;verticalAlign=top;spacingLeft=4;spacingRight=4;overflow=hidden;rotatable=0;points=[[0,0.5],[1,0.5]];portConstraint=eastwest;whiteSpace=wrap;html=1;" vertex="1" parent="jhM8vWiSoszHQmGIz2Cq-34">
          <mxGeometry y="26" width="160" height="26" as="geometry" />
        </mxCell>
        <mxCell id="jhM8vWiSoszHQmGIz2Cq-36" value="" style="line;strokeWidth=1;fillColor=none;align=left;verticalAlign=middle;spacingTop=-1;spacingLeft=3;spacingRight=3;rotatable=0;labelPosition=right;points=[];portConstraint=eastwest;strokeColor=inherit;" vertex="1" parent="jhM8vWiSoszHQmGIz2Cq-34">
          <mxGeometry y="52" width="160" height="8" as="geometry" />
        </mxCell>
        <mxCell id="jhM8vWiSoszHQmGIz2Cq-37" value="+ method(type): type" style="text;strokeColor=none;fillColor=none;align=left;verticalAlign=top;spacingLeft=4;spacingRight=4;overflow=hidden;rotatable=0;points=[[0,0.5],[1,0.5]];portConstraint=eastwest;whiteSpace=wrap;html=1;" vertex="1" parent="jhM8vWiSoszHQmGIz2Cq-34">
          <mxGeometry y="60" width="160" height="26" as="geometry" />
        </mxCell>
        <mxCell id="jhM8vWiSoszHQmGIz2Cq-38" value="&lt;div style=&quot;&quot;&gt;&lt;div style=&quot;font-size: 9.8pt;&quot;&gt;&lt;div style=&quot;&quot;&gt;&lt;div style=&quot;font-size: 9.8pt;&quot;&gt;UNavArea&lt;/div&gt;&lt;/div&gt;&lt;/div&gt;&lt;/div&gt;" style="swimlane;fontStyle=1;align=center;verticalAlign=top;childLayout=stackLayout;horizontal=1;startSize=26;horizontalStack=0;resizeParent=1;resizeParentMax=0;resizeLast=0;collapsible=1;marginBottom=0;whiteSpace=wrap;html=1;fontFamily=Helvetica;fontColor=default;labelBackgroundColor=default;" vertex="1" parent="1">
          <mxGeometry x="1930" y="1734" width="160" height="86" as="geometry" />
        </mxCell>
        <mxCell id="jhM8vWiSoszHQmGIz2Cq-39" value="+ field: type" style="text;strokeColor=none;fillColor=none;align=left;verticalAlign=top;spacingLeft=4;spacingRight=4;overflow=hidden;rotatable=0;points=[[0,0.5],[1,0.5]];portConstraint=eastwest;whiteSpace=wrap;html=1;fontColor=default;labelBackgroundColor=default;fontFamily=Helvetica;" vertex="1" parent="jhM8vWiSoszHQmGIz2Cq-38">
          <mxGeometry y="26" width="160" height="26" as="geometry" />
        </mxCell>
        <mxCell id="jhM8vWiSoszHQmGIz2Cq-40" value="" style="line;strokeWidth=1;fillColor=none;align=left;verticalAlign=middle;spacingTop=-1;spacingLeft=3;spacingRight=3;rotatable=0;labelPosition=right;points=[];portConstraint=eastwest;strokeColor=inherit;fontColor=default;labelBackgroundColor=default;fontFamily=Helvetica;" vertex="1" parent="jhM8vWiSoszHQmGIz2Cq-38">
          <mxGeometry y="52" width="160" height="8" as="geometry" />
        </mxCell>
        <mxCell id="jhM8vWiSoszHQmGIz2Cq-41" value="+ method(type): type" style="text;strokeColor=none;fillColor=none;align=left;verticalAlign=top;spacingLeft=4;spacingRight=4;overflow=hidden;rotatable=0;points=[[0,0.5],[1,0.5]];portConstraint=eastwest;whiteSpace=wrap;html=1;fontColor=default;labelBackgroundColor=default;fontFamily=Helvetica;" vertex="1" parent="jhM8vWiSoszHQmGIz2Cq-38">
          <mxGeometry y="60" width="160" height="26" as="geometry" />
        </mxCell>
        <mxCell id="jhM8vWiSoszHQmGIz2Cq-42" style="edgeStyle=orthogonalEdgeStyle;rounded=0;orthogonalLoop=1;jettySize=auto;html=1;entryX=0.505;entryY=1.038;entryDx=0;entryDy=0;entryPerimeter=0;endArrow=block;endFill=0;" edge="1" parent="1" source="jhM8vWiSoszHQmGIz2Cq-38" target="jhM8vWiSoszHQmGIz2Cq-37">
          <mxGeometry relative="1" as="geometry" />
        </mxCell>
        <mxCell id="jhM8vWiSoszHQmGIz2Cq-43" value="&lt;div style=&quot;&quot;&gt;&lt;div style=&quot;font-size: 9.8pt;&quot;&gt;&lt;div style=&quot;&quot;&gt;&lt;div style=&quot;font-size: 9.8pt;&quot;&gt;&lt;div style=&quot;&quot;&gt;&lt;div style=&quot;font-size: 9.8pt;&quot;&gt;UNavArea_Obstacle&lt;/div&gt;&lt;/div&gt;&lt;/div&gt;&lt;/div&gt;&lt;/div&gt;&lt;/div&gt;" style="swimlane;fontStyle=1;align=center;verticalAlign=top;childLayout=stackLayout;horizontal=1;startSize=26;horizontalStack=0;resizeParent=1;resizeParentMax=0;resizeLast=0;collapsible=1;marginBottom=0;whiteSpace=wrap;html=1;fontFamily=Helvetica;fontColor=default;labelBackgroundColor=default;strokeColor=default;" vertex="1" parent="1">
          <mxGeometry x="1802" y="1870" width="160" height="86" as="geometry" />
        </mxCell>
        <mxCell id="jhM8vWiSoszHQmGIz2Cq-44" value="+ field: type" style="text;strokeColor=default;fillColor=none;align=left;verticalAlign=top;spacingLeft=4;spacingRight=4;overflow=hidden;rotatable=0;points=[[0,0.5],[1,0.5]];portConstraint=eastwest;whiteSpace=wrap;html=1;fontColor=default;labelBackgroundColor=default;fontFamily=Helvetica;" vertex="1" parent="jhM8vWiSoszHQmGIz2Cq-43">
          <mxGeometry y="26" width="160" height="26" as="geometry" />
        </mxCell>
        <mxCell id="jhM8vWiSoszHQmGIz2Cq-45" value="" style="line;strokeWidth=1;fillColor=none;align=left;verticalAlign=middle;spacingTop=-1;spacingLeft=3;spacingRight=3;rotatable=0;labelPosition=right;points=[];portConstraint=eastwest;strokeColor=default;fontColor=default;labelBackgroundColor=default;fontFamily=Helvetica;" vertex="1" parent="jhM8vWiSoszHQmGIz2Cq-43">
          <mxGeometry y="52" width="160" height="8" as="geometry" />
        </mxCell>
        <mxCell id="jhM8vWiSoszHQmGIz2Cq-46" value="+ method(type): type" style="text;strokeColor=default;fillColor=none;align=left;verticalAlign=top;spacingLeft=4;spacingRight=4;overflow=hidden;rotatable=0;points=[[0,0.5],[1,0.5]];portConstraint=eastwest;whiteSpace=wrap;html=1;fontColor=default;labelBackgroundColor=default;fontFamily=Helvetica;" vertex="1" parent="jhM8vWiSoszHQmGIz2Cq-43">
          <mxGeometry y="60" width="160" height="26" as="geometry" />
        </mxCell>
        <mxCell id="jhM8vWiSoszHQmGIz2Cq-47" value="&lt;div style=&quot;&quot;&gt;&lt;div style=&quot;font-size: 9.8pt;&quot;&gt;&lt;div style=&quot;&quot;&gt;&lt;div style=&quot;font-size: 9.8pt;&quot;&gt;&lt;div style=&quot;&quot;&gt;&lt;div style=&quot;font-size: 9.8pt;&quot;&gt;&lt;div&gt;&lt;div style=&quot;font-size: 9.8pt;&quot;&gt;UNavArea_Null&lt;/div&gt;&lt;/div&gt;&lt;/div&gt;&lt;/div&gt;&lt;/div&gt;&lt;/div&gt;&lt;/div&gt;&lt;/div&gt;" style="swimlane;fontStyle=1;align=center;verticalAlign=top;childLayout=stackLayout;horizontal=1;startSize=26;horizontalStack=0;resizeParent=1;resizeParentMax=0;resizeLast=0;collapsible=1;marginBottom=0;whiteSpace=wrap;html=1;fontFamily=Helvetica;fontColor=default;labelBackgroundColor=default;strokeColor=default;" vertex="1" parent="1">
          <mxGeometry x="2065" y="1870" width="160" height="86" as="geometry" />
        </mxCell>
        <mxCell id="jhM8vWiSoszHQmGIz2Cq-48" value="+ field: type" style="text;strokeColor=default;fillColor=none;align=left;verticalAlign=top;spacingLeft=4;spacingRight=4;overflow=hidden;rotatable=0;points=[[0,0.5],[1,0.5]];portConstraint=eastwest;whiteSpace=wrap;html=1;fontColor=default;labelBackgroundColor=default;fontFamily=Helvetica;" vertex="1" parent="jhM8vWiSoszHQmGIz2Cq-47">
          <mxGeometry y="26" width="160" height="26" as="geometry" />
        </mxCell>
        <mxCell id="jhM8vWiSoszHQmGIz2Cq-49" value="" style="line;strokeWidth=1;fillColor=none;align=left;verticalAlign=middle;spacingTop=-1;spacingLeft=3;spacingRight=3;rotatable=0;labelPosition=right;points=[];portConstraint=eastwest;strokeColor=default;fontColor=default;labelBackgroundColor=default;fontFamily=Helvetica;" vertex="1" parent="jhM8vWiSoszHQmGIz2Cq-47">
          <mxGeometry y="52" width="160" height="8" as="geometry" />
        </mxCell>
        <mxCell id="jhM8vWiSoszHQmGIz2Cq-50" value="+ method(type): type" style="text;strokeColor=default;fillColor=none;align=left;verticalAlign=top;spacingLeft=4;spacingRight=4;overflow=hidden;rotatable=0;points=[[0,0.5],[1,0.5]];portConstraint=eastwest;whiteSpace=wrap;html=1;fontColor=default;labelBackgroundColor=default;fontFamily=Helvetica;" vertex="1" parent="jhM8vWiSoszHQmGIz2Cq-47">
          <mxGeometry y="60" width="160" height="26" as="geometry" />
        </mxCell>
        <mxCell id="jhM8vWiSoszHQmGIz2Cq-51" style="edgeStyle=orthogonalEdgeStyle;rounded=0;orthogonalLoop=1;jettySize=auto;html=1;entryX=0.502;entryY=0.962;entryDx=0;entryDy=0;entryPerimeter=0;" edge="1" parent="1" source="jhM8vWiSoszHQmGIz2Cq-43" target="jhM8vWiSoszHQmGIz2Cq-41">
          <mxGeometry relative="1" as="geometry" />
        </mxCell>
        <mxCell id="jhM8vWiSoszHQmGIz2Cq-53" style="edgeStyle=orthogonalEdgeStyle;rounded=0;orthogonalLoop=1;jettySize=auto;html=1;entryX=0.502;entryY=1.027;entryDx=0;entryDy=0;entryPerimeter=0;" edge="1" parent="1" source="jhM8vWiSoszHQmGIz2Cq-47" target="jhM8vWiSoszHQmGIz2Cq-41">
          <mxGeometry relative="1" as="geometry" />
        </mxCell>
        <mxCell id="jhM8vWiSoszHQmGIz2Cq-72" style="edgeStyle=orthogonalEdgeStyle;rounded=0;orthogonalLoop=1;jettySize=auto;html=1;entryX=1;entryY=0.5;entryDx=0;entryDy=0;endArrow=diamond;endFill=0;" edge="1" parent="1" source="jhM8vWiSoszHQmGIz2Cq-57" target="jhM8vWiSoszHQmGIz2Cq-67">
          <mxGeometry relative="1" as="geometry">
            <Array as="points">
              <mxPoint x="720" y="1113" />
              <mxPoint x="720" y="311" />
            </Array>
          </mxGeometry>
        </mxCell>
        <mxCell id="jhM8vWiSoszHQmGIz2Cq-57" value="&lt;div style=&quot;&quot;&gt;&lt;div style=&quot;font-size: 9.8pt;&quot;&gt;&lt;div style=&quot;&quot;&gt;&lt;div style=&quot;font-size: 9.8pt;&quot;&gt;&lt;b&gt;FNavDataConfig&lt;/b&gt;&lt;/div&gt;&lt;/div&gt;&lt;/div&gt;&lt;/div&gt;" style="swimlane;fontStyle=0;align=center;verticalAlign=top;childLayout=stackLayout;horizontal=1;startSize=26;horizontalStack=0;resizeParent=1;resizeParentMax=0;resizeLast=0;collapsible=1;marginBottom=0;whiteSpace=wrap;html=1;fontFamily=Helvetica;fontColor=default;labelBackgroundColor=default;fillColor=default;" vertex="1" parent="1">
          <mxGeometry x="765" y="1090" width="350" height="164" as="geometry" />
        </mxCell>
        <mxCell id="jhM8vWiSoszHQmGIz2Cq-58" value="&lt;div style=&quot;&quot;&gt;&lt;div style=&quot;font-size: 9.8pt;&quot;&gt;FName &lt;span style=&quot;&quot;&gt;Name&lt;/span&gt;&lt;span style=&quot;&quot;&gt;;&lt;/span&gt;&lt;/div&gt;&lt;/div&gt;" style="text;strokeColor=none;fillColor=default;align=left;verticalAlign=top;spacingLeft=4;spacingRight=4;overflow=hidden;rotatable=0;points=[[0,0.5],[1,0.5]];portConstraint=eastwest;whiteSpace=wrap;html=1;fontFamily=Helvetica;fontColor=default;labelBackgroundColor=default;fontStyle=0" vertex="1" parent="jhM8vWiSoszHQmGIz2Cq-57">
          <mxGeometry y="26" width="350" height="26" as="geometry" />
        </mxCell>
        <mxCell id="jhM8vWiSoszHQmGIz2Cq-82" value="&lt;div style=&quot;&quot;&gt;&lt;div style=&quot;font-size: 9.8pt;&quot;&gt;&lt;div style=&quot;&quot;&gt;&lt;div style=&quot;font-size: 9.8pt;&quot;&gt;FColor &lt;span style=&quot;&quot;&gt;Color&lt;/span&gt;&lt;span style=&quot;&quot;&gt;;&lt;/span&gt;&lt;/div&gt;&lt;/div&gt;&lt;/div&gt;&lt;/div&gt;" style="text;strokeColor=none;fillColor=default;align=left;verticalAlign=top;spacingLeft=4;spacingRight=4;overflow=hidden;rotatable=0;points=[[0,0.5],[1,0.5]];portConstraint=eastwest;whiteSpace=wrap;html=1;fontFamily=Helvetica;fontColor=default;labelBackgroundColor=default;fontStyle=0" vertex="1" parent="jhM8vWiSoszHQmGIz2Cq-57">
          <mxGeometry y="52" width="350" height="26" as="geometry" />
        </mxCell>
        <mxCell id="jhM8vWiSoszHQmGIz2Cq-83" value="&lt;div style=&quot;&quot;&gt;&lt;div style=&quot;font-size: 9.8pt;&quot;&gt;&lt;div style=&quot;&quot;&gt;&lt;div style=&quot;font-size: 9.8pt;&quot;&gt;&lt;div style=&quot;&quot;&gt;&lt;div style=&quot;font-size: 9.8pt;&quot;&gt;FVector &lt;span style=&quot;font-weight: bold;&quot;&gt;DefaultQueryExtent&lt;/span&gt;&lt;span style=&quot;&quot;&gt;;&lt;span style=&quot;white-space: pre;&quot;&gt;&#x9;&lt;/span&gt;// 查询时候Agent的体积&lt;/span&gt;&lt;/div&gt;&lt;/div&gt;&lt;/div&gt;&lt;/div&gt;&lt;/div&gt;&lt;/div&gt;" style="text;strokeColor=none;fillColor=default;align=left;verticalAlign=top;spacingLeft=4;spacingRight=4;overflow=hidden;rotatable=0;points=[[0,0.5],[1,0.5]];portConstraint=eastwest;whiteSpace=wrap;html=1;fontFamily=Helvetica;fontColor=default;labelBackgroundColor=default;fontStyle=0" vertex="1" parent="jhM8vWiSoszHQmGIz2Cq-57">
          <mxGeometry y="78" width="350" height="26" as="geometry" />
        </mxCell>
        <mxCell id="jhM8vWiSoszHQmGIz2Cq-84" value="&lt;div style=&quot;&quot;&gt;&lt;div style=&quot;font-size: 9.8pt;&quot;&gt;&lt;div style=&quot;&quot;&gt;&lt;div style=&quot;font-size: 9.8pt;&quot;&gt;&lt;div style=&quot;&quot;&gt;&lt;div style=&quot;font-size: 9.8pt;&quot;&gt;&lt;div style=&quot;&quot;&gt;&lt;div style=&quot;font-size: 9.8pt;&quot;&gt;&lt;span style=&quot;&quot;&gt;TSubclassOf&lt;/span&gt;&amp;lt;&lt;span style=&quot;&quot;&gt;AActor&lt;/span&gt;&amp;gt; &lt;span style=&quot;font-weight: bold;&quot;&gt;NavigationDataClass&lt;/span&gt;&lt;span style=&quot;&quot;&gt;; // Actor&lt;/span&gt;&lt;/div&gt;&lt;/div&gt;&lt;/div&gt;&lt;/div&gt;&lt;/div&gt;&lt;/div&gt;&lt;/div&gt;&lt;/div&gt;" style="text;strokeColor=none;fillColor=default;align=left;verticalAlign=top;spacingLeft=4;spacingRight=4;overflow=hidden;rotatable=0;points=[[0,0.5],[1,0.5]];portConstraint=eastwest;whiteSpace=wrap;html=1;fontFamily=Helvetica;fontColor=default;labelBackgroundColor=default;fontStyle=0" vertex="1" parent="jhM8vWiSoszHQmGIz2Cq-57">
          <mxGeometry y="104" width="350" height="26" as="geometry" />
        </mxCell>
        <mxCell id="jhM8vWiSoszHQmGIz2Cq-59" value="" style="line;strokeWidth=1;fillColor=default;align=left;verticalAlign=middle;spacingTop=-1;spacingLeft=3;spacingRight=3;rotatable=0;labelPosition=right;points=[];portConstraint=eastwest;strokeColor=inherit;fontFamily=Helvetica;fontColor=default;labelBackgroundColor=default;fontStyle=0" vertex="1" parent="jhM8vWiSoszHQmGIz2Cq-57">
          <mxGeometry y="130" width="350" height="8" as="geometry" />
        </mxCell>
        <mxCell id="jhM8vWiSoszHQmGIz2Cq-60" value="+ method(type): type" style="text;strokeColor=none;fillColor=default;align=left;verticalAlign=top;spacingLeft=4;spacingRight=4;overflow=hidden;rotatable=0;points=[[0,0.5],[1,0.5]];portConstraint=eastwest;whiteSpace=wrap;html=1;fontFamily=Helvetica;fontColor=default;labelBackgroundColor=default;fontStyle=0" vertex="1" parent="jhM8vWiSoszHQmGIz2Cq-57">
          <mxGeometry y="138" width="350" height="26" as="geometry" />
        </mxCell>
        <mxCell id="jhM8vWiSoszHQmGIz2Cq-62" value="&lt;b style=&quot;border-color: var(--border-color);&quot;&gt;&amp;nbsp;UNavigationSystemV1&lt;/b&gt;" style="swimlane;fontStyle=1;align=center;verticalAlign=top;childLayout=stackLayout;horizontal=1;startSize=26;horizontalStack=0;resizeParent=1;resizeParentMax=0;resizeLast=0;collapsible=1;marginBottom=0;whiteSpace=wrap;html=1;fontFamily=Helvetica;fontColor=default;labelBackgroundColor=default;fillColor=default;" vertex="1" parent="1">
          <mxGeometry x="370" y="220" width="320" height="138" as="geometry" />
        </mxCell>
        <mxCell id="jhM8vWiSoszHQmGIz2Cq-63" value="+ MainNavData: ANavigationData*" style="text;strokeColor=none;fillColor=default;align=left;verticalAlign=top;spacingLeft=4;spacingRight=4;overflow=hidden;rotatable=0;points=[[0,0.5],[1,0.5]];portConstraint=eastwest;whiteSpace=wrap;html=1;fontFamily=Helvetica;fontColor=default;labelBackgroundColor=default;" vertex="1" parent="jhM8vWiSoszHQmGIz2Cq-62">
          <mxGeometry y="26" width="320" height="26" as="geometry" />
        </mxCell>
        <mxCell id="jhM8vWiSoszHQmGIz2Cq-66" value="+ AbstractNavData:ANavigationData*" style="text;strokeColor=none;fillColor=default;align=left;verticalAlign=top;spacingLeft=4;spacingRight=4;overflow=hidden;rotatable=0;points=[[0,0.5],[1,0.5]];portConstraint=eastwest;whiteSpace=wrap;html=1;fontFamily=Helvetica;fontColor=default;labelBackgroundColor=default;" vertex="1" parent="jhM8vWiSoszHQmGIz2Cq-62">
          <mxGeometry y="52" width="320" height="26" as="geometry" />
        </mxCell>
        <mxCell id="jhM8vWiSoszHQmGIz2Cq-67" value="&lt;div style=&quot;&quot;&gt;&lt;div style=&quot;font-size: 9.8pt;&quot;&gt;TArray&amp;lt;&lt;span style=&quot;&quot;&gt;FNavDataConfig&lt;/span&gt;&amp;gt; &lt;span style=&quot;&quot;&gt;SupportedAgents&lt;/span&gt;&lt;span style=&quot;&quot;&gt;;&lt;/span&gt;&lt;/div&gt;&lt;/div&gt;" style="text;strokeColor=none;fillColor=default;align=left;verticalAlign=top;spacingLeft=4;spacingRight=4;overflow=hidden;rotatable=0;points=[[0,0.5],[1,0.5]];portConstraint=eastwest;whiteSpace=wrap;html=1;fontFamily=Helvetica;fontColor=default;labelBackgroundColor=none;fontStyle=0" vertex="1" parent="jhM8vWiSoszHQmGIz2Cq-62">
          <mxGeometry y="78" width="320" height="26" as="geometry" />
        </mxCell>
        <mxCell id="jhM8vWiSoszHQmGIz2Cq-64" value="" style="line;strokeWidth=1;fillColor=default;align=left;verticalAlign=middle;spacingTop=-1;spacingLeft=3;spacingRight=3;rotatable=0;labelPosition=right;points=[];portConstraint=eastwest;strokeColor=default;fontFamily=Helvetica;fontColor=default;labelBackgroundColor=default;shadow=0;gradientColor=none;" vertex="1" parent="jhM8vWiSoszHQmGIz2Cq-62">
          <mxGeometry y="104" width="320" height="8" as="geometry" />
        </mxCell>
        <mxCell id="jhM8vWiSoszHQmGIz2Cq-65" value="+ method(type): type" style="text;strokeColor=none;fillColor=default;align=left;verticalAlign=top;spacingLeft=4;spacingRight=4;overflow=hidden;rotatable=0;points=[[0,0.5],[1,0.5]];portConstraint=eastwest;whiteSpace=wrap;html=1;fontFamily=Helvetica;fontColor=default;labelBackgroundColor=none;" vertex="1" parent="jhM8vWiSoszHQmGIz2Cq-62">
          <mxGeometry y="112" width="320" height="26" as="geometry" />
        </mxCell>
        <mxCell id="jhM8vWiSoszHQmGIz2Cq-73" value="&lt;div style=&quot;&quot;&gt;&lt;div style=&quot;font-size: 9.8pt;&quot;&gt;&lt;div style=&quot;&quot;&gt;&lt;div style=&quot;font-size: 9.8pt;&quot;&gt;&lt;div style=&quot;&quot;&gt;&lt;div style=&quot;font-size: 9.8pt;&quot;&gt;FNavAgentProperties&lt;/div&gt;&lt;/div&gt;&lt;/div&gt;&lt;/div&gt;&lt;/div&gt;&lt;/div&gt;" style="swimlane;fontStyle=1;align=center;verticalAlign=top;childLayout=stackLayout;horizontal=1;startSize=26;horizontalStack=0;resizeParent=1;resizeParentMax=0;resizeLast=0;collapsible=1;marginBottom=0;whiteSpace=wrap;html=1;fontFamily=Helvetica;fontColor=default;labelBackgroundColor=none;fillColor=#FFFFFF;" vertex="1" parent="1">
          <mxGeometry x="810" y="900" width="160" height="164" as="geometry" />
        </mxCell>
        <mxCell id="jhM8vWiSoszHQmGIz2Cq-74" value="&lt;div style=&quot;&quot;&gt;&lt;div style=&quot;font-size: 9.8pt;&quot;&gt;float &lt;span style=&quot;&quot;&gt;AgentRadius&lt;/span&gt;&lt;span style=&quot;&quot;&gt;;&lt;/span&gt;&lt;/div&gt;&lt;/div&gt;" style="text;strokeColor=none;fillColor=#FFFFFF;align=left;verticalAlign=top;spacingLeft=4;spacingRight=4;overflow=hidden;rotatable=0;points=[[0,0.5],[1,0.5]];portConstraint=eastwest;whiteSpace=wrap;html=1;fontFamily=Helvetica;fontColor=default;labelBackgroundColor=default;fontStyle=0;shadow=0;rounded=0;" vertex="1" parent="jhM8vWiSoszHQmGIz2Cq-73">
          <mxGeometry y="26" width="160" height="26" as="geometry" />
        </mxCell>
        <mxCell id="jhM8vWiSoszHQmGIz2Cq-79" value="&lt;div style=&quot;&quot;&gt;&lt;div style=&quot;font-size: 9.8pt;&quot;&gt;&lt;div style=&quot;&quot;&gt;&lt;div style=&quot;font-size: 9.8pt;&quot;&gt;float &lt;span style=&quot;&quot;&gt;AgentHeight&lt;/span&gt;&lt;span style=&quot;&quot;&gt;;&lt;/span&gt;&lt;/div&gt;&lt;/div&gt;&lt;/div&gt;&lt;/div&gt;" style="text;strokeColor=none;fillColor=#FFFFFF;align=left;verticalAlign=top;spacingLeft=4;spacingRight=4;overflow=hidden;rotatable=0;points=[[0,0.5],[1,0.5]];portConstraint=eastwest;whiteSpace=wrap;html=1;fontFamily=Helvetica;fontColor=default;labelBackgroundColor=default;fontStyle=0" vertex="1" parent="jhM8vWiSoszHQmGIz2Cq-73">
          <mxGeometry y="52" width="160" height="26" as="geometry" />
        </mxCell>
        <mxCell id="jhM8vWiSoszHQmGIz2Cq-80" value="&lt;div style=&quot;&quot;&gt;&lt;div style=&quot;font-size: 9.8pt;&quot;&gt;&lt;div style=&quot;&quot;&gt;&lt;div style=&quot;font-size: 9.8pt;&quot;&gt;float &lt;span style=&quot;&quot;&gt;AgentStepHeight&lt;/span&gt;&lt;span style=&quot;&quot;&gt;;&lt;/span&gt;&lt;/div&gt;&lt;/div&gt;&lt;/div&gt;&lt;/div&gt;" style="text;strokeColor=none;fillColor=#FFFFFF;align=left;verticalAlign=top;spacingLeft=4;spacingRight=4;overflow=hidden;rotatable=0;points=[[0,0.5],[1,0.5]];portConstraint=eastwest;whiteSpace=wrap;html=1;fontFamily=Helvetica;fontColor=default;labelBackgroundColor=default;fontStyle=0" vertex="1" parent="jhM8vWiSoszHQmGIz2Cq-73">
          <mxGeometry y="78" width="160" height="26" as="geometry" />
        </mxCell>
        <mxCell id="jhM8vWiSoszHQmGIz2Cq-81" value="&lt;div style=&quot;&quot;&gt;&lt;div style=&quot;font-size: 9.8pt;&quot;&gt;&lt;div style=&quot;&quot;&gt;&lt;div style=&quot;font-size: 9.8pt;&quot;&gt;等Agent的基础信息&lt;/div&gt;&lt;/div&gt;&lt;/div&gt;&lt;/div&gt;" style="text;strokeColor=none;fillColor=#FFFFFF;align=left;verticalAlign=top;spacingLeft=4;spacingRight=4;overflow=hidden;rotatable=0;points=[[0,0.5],[1,0.5]];portConstraint=eastwest;whiteSpace=wrap;html=1;fontFamily=Helvetica;fontColor=default;labelBackgroundColor=default;fontStyle=0" vertex="1" parent="jhM8vWiSoszHQmGIz2Cq-73">
          <mxGeometry y="104" width="160" height="26" as="geometry" />
        </mxCell>
        <mxCell id="jhM8vWiSoszHQmGIz2Cq-75" value="" style="line;strokeWidth=1;fillColor=#FFFFFF;align=left;verticalAlign=middle;spacingTop=-1;spacingLeft=3;spacingRight=3;rotatable=0;labelPosition=right;points=[];portConstraint=eastwest;strokeColor=inherit;fontFamily=Helvetica;fontColor=default;labelBackgroundColor=default;" vertex="1" parent="jhM8vWiSoszHQmGIz2Cq-73">
          <mxGeometry y="130" width="160" height="8" as="geometry" />
        </mxCell>
        <mxCell id="jhM8vWiSoszHQmGIz2Cq-76" value="+ method(type): type" style="text;strokeColor=none;fillColor=#FFFFFF;align=left;verticalAlign=top;spacingLeft=4;spacingRight=4;overflow=hidden;rotatable=0;points=[[0,0.5],[1,0.5]];portConstraint=eastwest;whiteSpace=wrap;html=1;fontFamily=Helvetica;fontColor=default;labelBackgroundColor=default;" vertex="1" parent="jhM8vWiSoszHQmGIz2Cq-73">
          <mxGeometry y="138" width="160" height="26" as="geometry" />
        </mxCell>
        <mxCell id="jhM8vWiSoszHQmGIz2Cq-78" style="edgeStyle=orthogonalEdgeStyle;rounded=0;orthogonalLoop=1;jettySize=auto;html=1;entryX=0.492;entryY=0.981;entryDx=0;entryDy=0;entryPerimeter=0;endArrow=blockThin;endFill=0;" edge="1" parent="1" source="jhM8vWiSoszHQmGIz2Cq-57" target="jhM8vWiSoszHQmGIz2Cq-76">
          <mxGeometry relative="1" as="geometry" />
        </mxCell>
        <mxCell id="jhM8vWiSoszHQmGIz2Cq-89" value="&lt;i style=&quot;border-color: var(--border-color); font-weight: 400; background-color: rgb(251, 251, 251);&quot;&gt;&lt;b style=&quot;border-color: var(--border-color);&quot;&gt;ANavigationData&lt;/b&gt;&lt;/i&gt;" style="swimlane;fontStyle=1;align=center;verticalAlign=top;childLayout=stackLayout;horizontal=1;startSize=26;horizontalStack=0;resizeParent=1;resizeParentMax=0;resizeLast=0;collapsible=1;marginBottom=0;whiteSpace=wrap;html=1;fontFamily=Helvetica;fontColor=default;labelBackgroundColor=default;fillColor=default;" vertex="1" parent="1">
          <mxGeometry x="860" y="140" width="370" height="136" as="geometry" />
        </mxCell>
        <mxCell id="jhM8vWiSoszHQmGIz2Cq-90" value="&amp;nbsp; NavDataConfig: FNavDataConfig" style="text;strokeColor=none;fillColor=default;align=left;verticalAlign=top;spacingLeft=4;spacingRight=4;overflow=hidden;rotatable=0;points=[[0,0.5],[1,0.5]];portConstraint=eastwest;whiteSpace=wrap;html=1;fontFamily=Helvetica;fontColor=default;labelBackgroundColor=default;" vertex="1" parent="jhM8vWiSoszHQmGIz2Cq-89">
          <mxGeometry y="26" width="370" height="24" as="geometry" />
        </mxCell>
        <mxCell id="jhM8vWiSoszHQmGIz2Cq-91" value="&amp;nbsp; NavdataGenerator: TSharePtr&amp;lt;FNavDataGenerator&amp;gt;" style="text;strokeColor=none;fillColor=default;align=left;verticalAlign=top;spacingLeft=4;spacingRight=4;overflow=hidden;rotatable=0;points=[[0,0.5],[1,0.5]];portConstraint=eastwest;whiteSpace=wrap;html=1;fontFamily=Helvetica;fontColor=default;labelBackgroundColor=default;" vertex="1" parent="jhM8vWiSoszHQmGIz2Cq-89">
          <mxGeometry y="50" width="370" height="26" as="geometry" />
        </mxCell>
        <mxCell id="jhM8vWiSoszHQmGIz2Cq-92" value="&lt;div style=&quot;&quot;&gt;&lt;div style=&quot;font-size: 9.8pt;&quot;&gt;&lt;div style=&quot;&quot;&gt;&lt;div style=&quot;font-size: 9.8pt;&quot;&gt;TArray&amp;lt;&lt;span style=&quot;&quot;&gt;FSupportedAreaData&lt;/span&gt;&amp;gt; &lt;span style=&quot;&quot;&gt;SupportedAreas&lt;/span&gt;&lt;span style=&quot;&quot;&gt;; // 支持的Area&lt;/span&gt;&lt;/div&gt;&lt;/div&gt;&lt;/div&gt;&lt;/div&gt;" style="text;strokeColor=none;fillColor=default;align=left;verticalAlign=top;spacingLeft=4;spacingRight=4;overflow=hidden;rotatable=0;points=[[0,0.5],[1,0.5]];portConstraint=eastwest;whiteSpace=wrap;html=1;fontFamily=Helvetica;fontColor=default;labelBackgroundColor=default;fontStyle=0" vertex="1" parent="jhM8vWiSoszHQmGIz2Cq-89">
          <mxGeometry y="76" width="370" height="26" as="geometry" />
        </mxCell>
        <mxCell id="jhM8vWiSoszHQmGIz2Cq-93" value="" style="line;strokeWidth=1;fillColor=default;align=left;verticalAlign=middle;spacingTop=-1;spacingLeft=3;spacingRight=3;rotatable=0;labelPosition=right;points=[];portConstraint=eastwest;strokeColor=default;fontFamily=Helvetica;fontColor=default;labelBackgroundColor=default;shadow=0;gradientColor=none;" vertex="1" parent="jhM8vWiSoszHQmGIz2Cq-89">
          <mxGeometry y="102" width="370" height="8" as="geometry" />
        </mxCell>
        <mxCell id="jhM8vWiSoszHQmGIz2Cq-94" value="+ method(type): type" style="text;strokeColor=none;fillColor=default;align=left;verticalAlign=top;spacingLeft=4;spacingRight=4;overflow=hidden;rotatable=0;points=[[0,0.5],[1,0.5]];portConstraint=eastwest;whiteSpace=wrap;html=1;fontFamily=Helvetica;fontColor=default;labelBackgroundColor=none;" vertex="1" parent="jhM8vWiSoszHQmGIz2Cq-89">
          <mxGeometry y="110" width="370" height="26" as="geometry" />
        </mxCell>
        <mxCell id="jhM8vWiSoszHQmGIz2Cq-102" style="edgeStyle=orthogonalEdgeStyle;rounded=0;orthogonalLoop=1;jettySize=auto;html=1;endArrow=diamond;endFill=0;" edge="1" parent="1" source="jhM8vWiSoszHQmGIz2Cq-96" target="jhM8vWiSoszHQmGIz2Cq-92">
          <mxGeometry relative="1" as="geometry" />
        </mxCell>
        <mxCell id="jhM8vWiSoszHQmGIz2Cq-96" value="&lt;div style=&quot;&quot;&gt;&lt;div style=&quot;font-size: 9.8pt;&quot;&gt;FSupportedAreaData&lt;/div&gt;&lt;/div&gt;" style="swimlane;fontStyle=1;align=center;verticalAlign=top;childLayout=stackLayout;horizontal=1;startSize=26;horizontalStack=0;resizeParent=1;resizeParentMax=0;resizeLast=0;collapsible=1;marginBottom=0;whiteSpace=wrap;html=1;fontFamily=Helvetica;fontColor=default;labelBackgroundColor=default;fillColor=default;" vertex="1" parent="1">
          <mxGeometry x="1290" y="358" width="370" height="136" as="geometry" />
        </mxCell>
        <mxCell id="jhM8vWiSoszHQmGIz2Cq-97" value="&lt;div style=&quot;&quot;&gt;&lt;div style=&quot;font-size: 9.8pt;&quot;&gt;FString &lt;span style=&quot;&quot;&gt;AreaClassName&lt;/span&gt;&lt;span style=&quot;&quot;&gt;;&lt;/span&gt;&lt;/div&gt;&lt;/div&gt;" style="text;strokeColor=none;fillColor=default;align=left;verticalAlign=top;spacingLeft=4;spacingRight=4;overflow=hidden;rotatable=0;points=[[0,0.5],[1,0.5]];portConstraint=eastwest;whiteSpace=wrap;html=1;fontFamily=Helvetica;fontColor=default;labelBackgroundColor=default;fontStyle=0" vertex="1" parent="jhM8vWiSoszHQmGIz2Cq-96">
          <mxGeometry y="26" width="370" height="24" as="geometry" />
        </mxCell>
        <mxCell id="jhM8vWiSoszHQmGIz2Cq-98" value="&lt;div style=&quot;&quot;&gt;&lt;div style=&quot;font-size: 9.8pt;&quot;&gt;int32 &lt;span style=&quot;&quot;&gt;AreaID&lt;/span&gt;&lt;span style=&quot;&quot;&gt;;&lt;/span&gt;&lt;/div&gt;&lt;/div&gt;" style="text;strokeColor=none;fillColor=default;align=left;verticalAlign=top;spacingLeft=4;spacingRight=4;overflow=hidden;rotatable=0;points=[[0,0.5],[1,0.5]];portConstraint=eastwest;whiteSpace=wrap;html=1;fontFamily=Helvetica;fontColor=default;labelBackgroundColor=default;fontStyle=0" vertex="1" parent="jhM8vWiSoszHQmGIz2Cq-96">
          <mxGeometry y="50" width="370" height="26" as="geometry" />
        </mxCell>
        <mxCell id="jhM8vWiSoszHQmGIz2Cq-99" value="&lt;div style=&quot;&quot;&gt;&lt;div style=&quot;font-size: 9.8pt;&quot;&gt;&lt;div style=&quot;&quot;&gt;&lt;div style=&quot;font-size: 9.8pt;&quot;&gt;&lt;div style=&quot;&quot;&gt;&lt;div style=&quot;font-size: 9.8pt;&quot;&gt;const &lt;span style=&quot;&quot;&gt;UClass&lt;/span&gt;* &lt;span style=&quot;&quot;&gt;AreaClass&lt;/span&gt;&lt;span style=&quot;&quot;&gt;;&lt;/span&gt;&lt;/div&gt;&lt;/div&gt;&lt;/div&gt;&lt;/div&gt;&lt;/div&gt;&lt;/div&gt;" style="text;strokeColor=none;fillColor=default;align=left;verticalAlign=top;spacingLeft=4;spacingRight=4;overflow=hidden;rotatable=0;points=[[0,0.5],[1,0.5]];portConstraint=eastwest;whiteSpace=wrap;html=1;fontFamily=Helvetica;fontColor=default;labelBackgroundColor=default;fontStyle=0" vertex="1" parent="jhM8vWiSoszHQmGIz2Cq-96">
          <mxGeometry y="76" width="370" height="26" as="geometry" />
        </mxCell>
        <mxCell id="jhM8vWiSoszHQmGIz2Cq-100" value="" style="line;strokeWidth=1;fillColor=default;align=left;verticalAlign=middle;spacingTop=-1;spacingLeft=3;spacingRight=3;rotatable=0;labelPosition=right;points=[];portConstraint=eastwest;strokeColor=default;fontFamily=Helvetica;fontColor=default;labelBackgroundColor=default;shadow=0;gradientColor=none;" vertex="1" parent="jhM8vWiSoszHQmGIz2Cq-96">
          <mxGeometry y="102" width="370" height="8" as="geometry" />
        </mxCell>
        <mxCell id="jhM8vWiSoszHQmGIz2Cq-101" value="+ method(type): type" style="text;strokeColor=none;fillColor=default;align=left;verticalAlign=top;spacingLeft=4;spacingRight=4;overflow=hidden;rotatable=0;points=[[0,0.5],[1,0.5]];portConstraint=eastwest;whiteSpace=wrap;html=1;fontFamily=Helvetica;fontColor=default;labelBackgroundColor=default;" vertex="1" parent="jhM8vWiSoszHQmGIz2Cq-96">
          <mxGeometry y="110" width="370" height="26" as="geometry" />
        </mxCell>
        <mxCell id="jhM8vWiSoszHQmGIz2Cq-103" value="&lt;div style=&quot;&quot;&gt;&lt;div style=&quot;font-size: 9.8pt;&quot;&gt;&lt;div style=&quot;&quot;&gt;&lt;div style=&quot;font-size: 9.8pt;&quot;&gt;&lt;div style=&quot;font-size: 9.8pt;&quot;&gt;&lt;div style=&quot;&quot;&gt;&lt;div style=&quot;font-size: 9.8pt;&quot;&gt;&lt;div style=&quot;font-size: 9.8pt;&quot;&gt;&lt;div style=&quot;&quot;&gt;&lt;div style=&quot;font-size: 9.8pt;&quot;&gt;&lt;div style=&quot;font-size: 9.8pt;&quot;&gt;&lt;div style=&quot;font-size: 9.8pt;&quot;&gt;&lt;div style=&quot;font-size: 9.8pt;&quot;&gt;&lt;div style=&quot;font-size: 9.8pt;&quot;&gt;替换或添加Area&lt;/div&gt;&lt;/div&gt;&lt;/div&gt;&lt;/div&gt;&lt;/div&gt;&lt;/div&gt;&lt;/div&gt;&lt;/div&gt;&lt;/div&gt;&lt;/div&gt;&lt;/div&gt;&lt;/div&gt;&lt;/div&gt;&lt;/div&gt;" style="rounded=1;whiteSpace=wrap;html=1;labelBackgroundColor=none;fontFamily=Helvetica;fontStyle=0;strokeColor=#007FFF;fillColor=default;fontColor=default;labelBorderColor=none;" vertex="1" parent="1">
          <mxGeometry x="4460" y="4280" width="180" height="60" as="geometry" />
        </mxCell>
      </root>
    </mxGraphModel>
  </diagram>
</mxfile>
